<?xml version="1.0" encoding="UTF-8"?>
<!DOCTYPE svg PUBLIC "-//W3C//DTD SVG 1.1//EN" "http://www.w3.org/Graphics/SVG/1.1/DTD/svg11.dtd">
<svg width="1797px" height="983px" viewBox="0 0 1797 983" version="1.1" xmlns="http://www.w3.org/2000/svg" xmlns:xlink="http://www.w3.org/1999/xlink">
  <g>
    <line stroke="#ff0000" stroke-width="5" stroke-linecap="butt" stroke-linejoin="bevel" x1="1391.5" y1="-235.5" x2="1538.5" y2="-235.5" />
    <text x="1391" y="-240" font-family="Times New Roman" font-size="11" fill="#000000">f(x)=63</text>
    <line stroke="#ff0000" stroke-width="5" stroke-linecap="butt" stroke-linejoin="bevel" x1="1391.5" y1="-215.5" x2="1538.5" y2="-215.5" />
    <text x="1391" y="-220" font-family="Times New Roman" font-size="11" fill="#000000">f(x)=log(x-20)*48+63</text>
    <line stroke="#ff0000" stroke-width="5" stroke-linecap="butt" stroke-linejoin="bevel" x1="1391.5" y1="-195.5" x2="1538.5" y2="-195.5" />
    <text x="1391" y="-200" font-family="Times New Roman" font-size="11" fill="#000000">f(x)=-21.3637*ln(x)+127; R²=1</text>
    <line stroke="#ff0000" stroke-width="1" stroke-dasharray="1,10" stroke-linecap="round" stroke-linejoin="round" x1="1391.5" y1="-175.5" x2="1538.5" y2="-175.5" />
    <text x="1391" y="-180" font-family="Times New Roman" font-size="11" fill="#000000">MAXIMUM</text>
    <line stroke="#008000" stroke-width="1" stroke-dasharray="1,10" stroke-linecap="round" stroke-linejoin="round" x1="1391.5" y1="-155.5" x2="1538.5" y2="-155.5" />
    <text x="1391" y="-160" font-family="Times New Roman" font-size="11" fill="#000000">NORMAL</text>
    <line stroke="#993300" stroke-width="1" stroke-dasharray="1,10" stroke-linecap="round" stroke-linejoin="round" x1="1391.5" y1="-135.5" x2="1538.5" y2="-135.5" />
    <text x="1391" y="-140" font-family="Times New Roman" font-size="11" fill="#000000">HIGH</text>
    <line stroke="#cc3300" stroke-width="1" stroke-dasharray="1,10" stroke-linecap="round" stroke-linejoin="round" x1="1391.5" y1="-115.5" x2="1538.5" y2="-115.5" />
    <text x="1391" y="-120" font-family="Times New Roman" font-size="11" fill="#000000">HIGH_MAX</text>
    <line stroke="#ff3333" stroke-width="1" stroke-dasharray="1,10" stroke-linecap="round" stroke-linejoin="round" x1="1391.5" y1="-95.5" x2="1538.5" y2="-95.5" />
    <text x="1391" y="-100" font-family="Times New Roman" font-size="11" fill="#000000">EMERGENCY</text>
    <polygon stroke="#000000" stroke-width="1" stroke-linecap="round" stroke-linejoin="round" fill="#00ff00" points="1405.5,-75.5 1411.5,-81.5 1417.5,-75.5 1411.5,-69.5 " />
    <polygon stroke="#000000" stroke-width="1" stroke-linecap="round" stroke-linejoin="round" fill="#00ff00" points="1455.5,-75.5 1461.5,-81.5 1467.5,-75.5 1461.5,-69.5 " />
    <polygon stroke="#000000" stroke-width="1" stroke-linecap="round" stroke-linejoin="round" fill="#00ff00" points="1505.5,-75.5 1511.5,-81.5 1517.5,-75.5 1511.5,-69.5 " />
    <text x="1391" y="-80" font-family="Times New Roman" font-size="11" fill="#000000">Series 1</text>
    <rect stroke="#000000" stroke-width="1" stroke-linecap="round" stroke-linejoin="round" fill="none" x="1386.5" y="-255.5" width="157" height="189" />
  </g>
  <clipPath id="clippath1">
    <path d="M-1,-1 H1797 V982H-1 z M1385,-257 H1545 V-65 H1385 z" clip-rule="evenodd" />
  </clipPath>
  <g clip-path="url(#clippath1)">
    <polyline stroke="#ff0000" stroke-width="5" stroke-linecap="butt" stroke-linejoin="bevel" fill="none" points="525,732 526,732 527,732 528,732 529,732 530,732 531,732 532,732 533,732 534,732 535,732 536,732 537,732 538,732 539,732 540,732 541,732 542,732 543,732 " />
  </g>
  <clipPath id="clippath2">
    <path d="M-1,-1 H1797 V982H-1 z M1385,-257 H1545 V-65 H1385 z" clip-rule="evenodd" />
  </clipPath>
  <g clip-path="url(#clippath2)">
    <text x="519" y="982" font-family="Times New Roman" font-size="13" fill="#000000">20</text>
    <text x="889" y="982" font-family="Times New Roman" font-size="13" fill="#000000">40</text>
    <text x="1260" y="982" font-family="Times New Roman" font-size="13" fill="#000000">60</text>
    <text x="1631" y="982" font-family="Times New Roman" font-size="13" fill="#000000">80</text>
    <text x="135" y="912" font-family="Times New Roman" font-size="13" fill="#000000">16</text>
    <text x="135" y="853" font-family="Times New Roman" font-size="13" fill="#000000">32</text>
    <text x="135" y="794" font-family="Times New Roman" font-size="13" fill="#000000">48</text>
    <text x="135" y="735" font-family="Times New Roman" font-size="13" fill="#000000">64</text>
    <text x="135" y="675" font-family="Times New Roman" font-size="13" fill="#000000">80</text>
    <text x="135" y="616" font-family="Times New Roman" font-size="13" fill="#000000">96</text>
    <text x="129" y="557" font-family="Times New Roman" font-size="13" fill="#000000">112</text>
    <text x="129" y="498" font-family="Times New Roman" font-size="13" fill="#000000">128</text>
    <text x="129" y="439" font-family="Times New Roman" font-size="13" fill="#000000">144</text>
    <text x="129" y="380" font-family="Times New Roman" font-size="13" fill="#000000">160</text>
    <text x="129" y="321" font-family="Times New Roman" font-size="13" fill="#000000">176</text>
    <text x="129" y="262" font-family="Times New Roman" font-size="13" fill="#000000">192</text>
    <text x="129" y="203" font-family="Times New Roman" font-size="13" fill="#000000">208</text>
    <text x="129" y="144" font-family="Times New Roman" font-size="13" fill="#000000">224</text>
    <text x="129" y="85" font-family="Times New Roman" font-size="13" fill="#000000">240</text>
    <text x="129" y="26" font-family="Times New Roman" font-size="13" fill="#000000">256</text>
    <text x="1786" y="955" font-family="Times New Roman" font-size="16" font-weight="700" fill="#000000">x</text>
    <text x="166" y="13" font-family="Times New Roman" font-size="16" font-weight="700" fill="#000000">y</text>
    <line stroke="#a0a0a4" stroke-width="2" stroke-linecap="butt" stroke-linejoin="bevel" x1="0" y1="965" x2="1792" y2="965" />
    <polygon stroke="#a0a0a4" stroke-width="1" stroke-linecap="round" stroke-linejoin="round" fill="#a0a0a4" points="1791.5,959.5 1796.5,964.5 1796.5,965.5 1791.5,970.5 " />
    <line stroke="#a0a0a4" stroke-width="1" stroke-linecap="round" stroke-linejoin="round" x1="525.5" y1="970.5" x2="525.5" y2="959.5" />
    <line stroke="#a0a0a4" stroke-width="1" stroke-linecap="round" stroke-linejoin="round" x1="895.5" y1="970.5" x2="895.5" y2="959.5" />
    <line stroke="#a0a0a4" stroke-width="1" stroke-linecap="round" stroke-linejoin="round" x1="1266.5" y1="970.5" x2="1266.5" y2="959.5" />
    <line stroke="#a0a0a4" stroke-width="1" stroke-linecap="round" stroke-linejoin="round" x1="1637.5" y1="970.5" x2="1637.5" y2="959.5" />
    <line stroke="#a0a0a4" stroke-width="2" stroke-linecap="butt" stroke-linejoin="bevel" x1="154" y1="3" x2="154" y2="982" />
    <polygon stroke="#a0a0a4" stroke-width="1" stroke-linecap="round" stroke-linejoin="round" fill="#a0a0a4" points="148.5,5.5 153.5,0.5 154.5,0.5 159.5,5.5 " />
  </g>
  <clipPath id="clippath3">
    <path d="M-1,-1 H1797 V982H-1 z M1385,-257 H1545 V-65 H1385 z" clip-rule="evenodd" />
  </clipPath>
  <g clip-path="url(#clippath3)">
    <polyline stroke="#ff0000" stroke-width="5" stroke-linecap="butt" stroke-linejoin="bevel" fill="none" points="543,732 544,728 545,724 546,721 547,717 548,714 549,711 550,708 551,705 552,702 553,699 554,696 555,694 556,691 557,689 558,687 559,684 560,682 561,680 562,678 563,676 564,674 565,672 566,670 567,668 568,667 569,665 570,663 571,661 572,660 573,658 574,657 575,655 576,654 577,652 578,651 579,649 580,648 581,646 582,645 583,644 584,642 585,641 586,640 587,639 588,637 589,636 590,635 591,634 592,633 593,632 594,630 595,629 596,628 597,627 598,626 599,625 600,624 601,623 602,622 603,621 604,620 605,619 606,618 607,617 608,616 609,615 610,615 611,614 612,613 613,612 614,611 615,610 616,609 617,609 618,608 619,607 620,606 621,605 622,604 623,604 624,603 625,602 626,601 627,601 628,600 629,599 630,598 631,598 632,597 633,596 634,596 635,595 636,594 637,593 638,593 639,592 640,591 641,591 642,590 643,589 644,589 645,588 646,588 647,587 648,586 649,586 650,585 651,584 652,584 653,583 654,583 655,582 656,581 657,581 658,580 659,580 660,579 661,579 662,578 663,577 664,577 665,576 666,576 667,575 668,575 669,574 670,574 671,573 672,573 673,572 674,572 675,571 676,571 677,570 678,570 679,569 680,569 681,568 682,568 683,567 684,567 685,566 686,566 687,565 688,565 689,564 690,564 691,563 692,563 693,562 694,562 695,561 696,561 697,561 698,560 699,560 700,559 701,559 702,558 703,558 704,557 705,557 706,557 707,556 708,556 709,555 710,555 711,555 712,554 713,554 714,553 715,553 716,552 717,552 718,552 719,551 720,551 721,551 722,550 723,550 724,549 725,549 726,549 727,548 728,548 729,547 730,547 731,547 732,546 733,546 734,546 735,545 736,545 737,544 738,544 739,544 740,543 741,543 742,543 743,542 744,542 745,542 746,541 747,541 748,541 749,540 750,540 751,540 752,539 753,539 754,539 755,538 756,538 757,538 758,537 759,537 760,537 761,536 762,536 763,536 764,535 765,535 766,535 767,534 768,534 769,534 770,533 771,533 772,533 773,532 774,532 775,532 776,532 777,531 778,531 779,531 780,530 781,530 782,530 783,529 784,529 785,529 786,529 787,528 788,528 789,528 790,527 791,527 792,527 793,526 794,526 795,526 796,526 797,525 798,525 799,525 800,525 801,524 802,524 803,524 804,523 805,523 806,523 807,523 808,522 809,522 810,522 811,521 812,521 813,521 814,521 815,520 816,520 817,520 818,520 819,519 820,519 821,519 822,519 823,518 824,518 825,518 826,518 827,517 828,517 829,517 830,517 831,516 832,516 833,516 834,516 835,515 836,515 837,515 838,515 839,514 840,514 841,514 842,514 843,513 844,513 845,513 846,513 847,512 848,512 849,512 850,512 851,511 852,511 853,511 854,511 855,510 856,510 857,510 858,510 859,510 860,509 861,509 862,509 863,509 864,508 865,508 866,508 867,508 868,508 869,507 870,507 871,507 872,507 873,506 874,506 875,506 876,506 877,506 878,505 879,505 880,505 881,505 882,504 883,504 884,504 885,504 886,504 887,503 888,503 889,503 890,503 891,503 892,502 893,502 894,502 895,502 896,501 897,501 898,501 899,501 900,501 901,500 902,500 903,500 904,500 905,500 906,499 907,499 908,499 909,499 910,499 911,498 912,498 913,498 914,498 915,498 916,497 917,497 918,497 919,497 920,497 921,496 922,496 923,496 924,496 925,496 926,496 927,495 928,495 929,495 930,495 931,495 932,494 933,494 934,494 935,494 936,494 937,493 938,493 939,493 940,493 941,493 942,493 943,492 944,492 945,492 946,492 947,492 948,491 949,491 950,491 951,491 952,491 953,491 954,490 955,490 956,490 957,490 958,490 959,489 960,489 961,489 962,489 963,489 964,489 965,488 966,488 967,488 968,488 969,488 970,488 971,487 972,487 973,487 974,487 975,487 976,486 977,486 978,486 979,486 980,486 981,486 982,485 983,485 984,485 985,485 986,485 987,485 988,484 989,484 990,484 991,484 992,484 993,484 994,483 995,483 996,483 997,483 998,483 999,483 1000,482 1001,482 1002,482 1003,482 1004,482 1005,482 1006,482 1007,481 1008,481 1009,481 1010,481 1011,481 1012,481 1013,480 1014,480 1015,480 1016,480 1017,480 1018,480 1019,479 1020,479 1021,479 1022,479 1023,479 1024,479 1025,479 1026,478 1027,478 1028,478 1029,478 1030,478 1031,478 1032,477 1033,477 1034,477 1035,477 1036,477 1037,477 1038,477 1039,476 1040,476 1041,476 1042,476 1043,476 1044,476 1045,476 1046,475 1047,475 1048,475 1049,475 1050,475 1051,475 1052,475 1053,474 1054,474 1055,474 1056,474 1057,474 1058,474 1059,473 1060,473 1061,473 1062,473 1063,473 1064,473 1065,473 1066,472 1067,472 1068,472 1069,472 1070,472 1071,472 1072,472 1073,472 1074,471 1075,471 1076,471 1077,471 1078,471 1079,471 1080,471 1081,470 1082,470 1083,470 1084,470 1085,470 1086,470 1087,470 1088,469 1089,469 1090,469 1091,469 1092,469 1093,469 1094,469 1095,468 1096,468 1097,468 1098,468 1099,468 1100,468 1101,468 1102,468 1103,467 1104,467 1105,467 1106,467 1107,467 1108,467 1109,467 1110,466 1111,466 1112,466 1113,466 1114,466 1115,466 1116,466 1117,466 1118,465 1119,465 1120,465 1121,465 1122,465 1123,465 1124,465 1125,465 1126,464 1127,464 1128,464 1129,464 1130,464 1131,464 1132,464 1133,464 1134,463 1135,463 1136,463 1137,463 1138,463 1139,463 1140,463 1141,463 1142,462 1143,462 1144,462 1145,462 1146,462 1147,462 1148,462 1149,462 1150,461 1151,461 1152,461 1153,461 1154,461 1155,461 1156,461 1157,461 1158,460 1159,460 1160,460 1161,460 1162,460 1163,460 1164,460 1165,460 1166,459 1167,459 1168,459 1169,459 1170,459 1171,459 1172,459 1173,459 1174,458 1175,458 1176,458 1177,458 1178,458 1179,458 1180,458 1181,458 1182,458 1183,457 1184,457 1185,457 1186,457 1187,457 1188,457 1189,457 1190,457 1191,457 1192,456 1193,456 1194,456 1195,456 1196,456 1197,456 1198,456 1199,456 1200,455 1201,455 1202,455 1203,455 1204,455 1205,455 1206,455 1207,455 1208,455 1209,454 1210,454 1211,454 1212,454 1213,454 1214,454 1215,454 1216,454 1217,454 1218,453 1219,453 1220,453 1221,453 1222,453 1223,453 1224,453 1225,453 1226,453 1227,452 1228,452 1229,452 1230,452 1231,452 1232,452 1233,452 1234,452 1235,452 1236,451 1237,451 1238,451 1239,451 1240,451 1241,451 1242,451 1243,451 1244,451 1245,451 1246,450 1247,450 1248,450 1249,450 1250,450 1251,450 1252,450 1253,450 1254,450 1255,449 1256,449 1257,449 1258,449 1259,449 1260,449 1261,449 1262,449 1263,449 1264,449 1265,448 1266,448 1267,448 1268,448 1269,448 1270,448 1271,448 1272,448 1273,448 1274,447 1275,447 1276,447 1277,447 1278,447 1279,447 1280,447 1281,447 1282,447 1283,447 1284,446 1285,446 1286,446 1287,446 1288,446 1289,446 1290,446 1291,446 1292,446 1293,446 1294,445 1295,445 1296,445 1297,445 1298,445 1299,445 1300,445 1301,445 1302,445 1303,445 1304,444 1305,444 1306,444 1307,444 1308,444 1309,444 1310,444 1311,444 1312,444 1313,444 1314,443 1315,443 1316,443 1317,443 1318,443 1319,443 1320,443 1321,443 1322,443 1323,443 1324,442 1325,442 1326,442 1327,442 1328,442 1329,442 1330,442 1331,442 1332,442 1333,442 1334,442 1335,441 1336,441 1337,441 1338,441 1339,441 1340,441 1341,441 1342,441 1343,441 1344,441 1345,441 1346,440 1347,440 1348,440 1349,440 1350,440 1351,440 1352,440 1353,440 1354,440 1355,440 1356,439 1357,439 1358,439 1359,439 1360,439 1361,439 1362,439 1363,439 1364,439 1365,439 1366,439 1367,438 1368,438 1369,438 1370,438 1371,438 1372,438 1373,438 1374,438 1375,438 1376,438 1377,438 1378,437 1379,437 1380,437 1381,437 1382,437 1383,437 1384,437 1385,437 1386,437 1387,437 1388,437 1389,436 1390,436 1391,436 1392,436 1393,436 1394,436 1395,436 1396,436 1397,436 1398,436 1399,436 1400,436 1401,435 1402,435 1403,435 1404,435 1405,435 1406,435 1407,435 1408,435 1409,435 1410,435 1411,435 1412,434 1413,434 1414,434 1415,434 1416,434 1417,434 1418,434 1419,434 1420,434 1421,434 1422,434 1423,434 1424,433 1425,433 1426,433 1427,433 1428,433 1429,433 1430,433 1431,433 1432,433 1433,433 1434,433 1435,432 1436,432 1437,432 1438,432 1439,432 1440,432 1441,432 1442,432 1443,432 1444,432 1445,432 1446,432 1447,431 1448,431 1449,431 1450,431 1451,431 1452,431 1453,431 1454,431 1455,431 1456,431 1457,431 1458,431 1459,430 1460,430 1461,430 1462,430 1463,430 1464,430 1465,430 1466,430 1467,430 1468,430 1469,430 1470,430 1471,430 1472,429 1473,429 1474,429 1475,429 1476,429 1477,429 1478,429 1479,429 1480,429 1481,429 1482,429 1483,429 1484,428 1485,428 1486,428 1487,428 1488,428 1489,428 1490,428 1491,428 1492,428 1493,428 1494,428 1495,428 1496,427 1497,427 1498,427 1499,427 1500,427 1501,427 1502,427 1503,427 1504,427 1505,427 1506,427 1507,427 1508,427 1509,426 1510,426 1511,426 1512,426 1513,426 1514,426 1515,426 1516,426 1517,426 1518,426 1519,426 1520,426 1521,426 1522,425 1523,425 1524,425 1525,425 1526,425 1527,425 1528,425 1529,425 1530,425 1531,425 1532,425 1533,425 1534,425 1535,424 1536,424 1537,424 1538,424 1539,424 1540,424 1541,424 1542,424 1543,424 1544,424 1545,424 1546,424 1547,424 1548,423 1549,423 1550,423 1551,423 1552,423 1553,423 1554,423 1555,423 1556,423 1557,423 1558,423 1559,423 1560,423 1561,423 1562,422 1563,422 1564,422 1565,422 1566,422 1567,422 1568,422 1569,422 1570,422 1571,422 1572,422 1573,422 1574,422 1575,421 1576,421 1577,421 1578,421 1579,421 1580,421 1581,421 1582,421 1583,421 1584,421 1585,421 1586,421 1587,421 1588,421 1589,420 1590,420 1591,420 1592,420 1593,420 1594,420 1595,420 1596,420 1597,420 1598,420 1599,420 1600,420 1601,420 1602,420 1603,419 1604,419 1605,419 1606,419 1607,419 1608,419 1609,419 1610,419 1611,419 1612,419 1613,419 1614,419 1615,419 1616,419 1617,418 1618,418 1619,418 1620,418 1621,418 1622,418 1623,418 1624,418 1625,418 1626,418 1627,418 1628,418 1629,418 1630,418 1631,417 1632,417 1633,417 1634,417 1635,417 1636,417 1637,417 1638,417 1639,417 1640,417 1641,417 1642,417 1643,417 1644,417 1645,417 1646,416 1647,416 1648,416 1649,416 1650,416 1651,416 1652,416 1653,416 1654,416 1655,416 1656,416 1657,416 1658,416 1659,416 1660,415 1661,415 1662,415 1663,415 1664,415 1665,415 1666,415 1667,415 1668,415 1669,415 1670,415 1671,415 1672,415 1673,415 1674,415 1675,414 1676,414 1677,414 1678,414 1679,414 1680,414 1681,414 1682,414 1683,414 1684,414 1685,414 1686,414 1687,414 1688,414 1689,414 1690,413 1691,413 1692,413 1693,413 1694,413 1695,413 1696,413 1697,413 1698,413 1699,413 1700,413 1701,413 1702,413 1703,413 1704,413 1705,412 1706,412 1707,412 1708,412 1709,412 1710,412 1711,412 1712,412 1713,412 1714,412 1715,412 1716,412 1717,412 1718,412 1719,412 1720,412 1721,411 1722,411 1723,411 1724,411 1725,411 1726,411 1727,411 1728,411 1729,411 1730,411 1731,411 1732,411 1733,411 1734,411 1735,411 1736,411 1737,410 1738,410 1739,410 1740,410 1741,410 1742,410 1743,410 1744,410 1745,410 1746,410 1747,410 1748,410 1749,410 1750,410 1751,410 1752,409 1753,409 1754,409 1755,409 1756,409 1757,409 1758,409 1759,409 1760,409 1761,409 1762,409 1763,409 1764,409 1765,409 1766,409 1767,409 1768,408 1769,408 1770,408 1771,408 1772,408 1773,408 1774,408 1775,408 1776,408 1777,408 1778,408 1779,408 1780,408 1781,408 1782,408 1783,408 1784,408 1785,407 1786,407 1787,407 1788,407 1789,407 1790,407 1791,407 1792,407 1793,407 1794,407 1795,407 1796,407 1797,407 " />
  </g>
  <clipPath id="clippath4">
    <path d="M-1,-1 H1797 V982H-1 z M1385,-257 H1545 V-65 H1385 z" clip-rule="evenodd" />
  </clipPath>
  <g clip-path="url(#clippath4)">
    <polyline stroke="#ff0000" stroke-width="5" stroke-linecap="butt" stroke-linejoin="bevel" fill="none" points="172,496 173,500 174,504 175,508 176,511 177,515 178,518 179,521 180,524 181,527 182,530 183,533 184,535 185,538 186,540 187,543 188,545 189,547 190,549 191,552 192,554 193,556 194,558 195,560 196,561 197,563 198,565 199,567 200,569 201,570 202,572 203,573 204,575 205,577 206,578 207,580 208,581 209,582 210,584 211,585 212,587 213,588 214,589 215,591 216,592 217,593 218,594 219,596 220,597 221,598 222,599 223,600 224,601 225,602 226,604 227,605 228,606 229,607 230,608 231,609 232,610 233,611 234,612 235,613 236,614 237,615 238,616 239,617 240,617 241,618 242,619 243,620 244,621 245,622 246,623 247,624 248,624 249,625 250,626 251,627 252,628 253,629 254,629 255,630 256,631 257,632 258,632 259,633 260,634 261,635 262,635 263,636 264,637 265,637 266,638 267,639 268,640 269,640 270,641 271,642 272,642 273,643 274,644 275,644 276,645 277,646 278,646 279,647 280,647 281,648 282,649 283,649 284,650 285,651 286,651 287,652 288,652 289,653 290,653 291,654 292,655 293,655 294,656 295,656 296,657 297,657 298,658 299,658 300,659 301,660 302,660 303,661 304,661 305,662 306,662 307,663 308,663 309,664 310,664 311,665 312,665 313,666 314,666 315,667 316,667 317,668 318,668 319,669 320,669 321,670 322,670 323,671 324,671 325,671 326,672 327,672 328,673 329,673 330,674 331,674 332,675 333,675 334,675 335,676 336,676 337,677 338,677 339,678 340,678 341,678 342,679 343,679 344,680 345,680 346,681 347,681 348,681 349,682 350,682 351,683 352,683 353,683 354,684 355,684 356,685 357,685 358,685 359,686 360,686 361,686 362,687 363,687 364,688 365,688 366,688 367,689 368,689 369,689 370,690 371,690 372,691 373,691 374,691 375,692 376,692 377,692 378,693 379,693 380,693 381,694 382,694 383,694 384,695 385,695 386,695 387,696 388,696 389,696 390,697 391,697 392,697 393,698 394,698 395,698 396,699 397,699 398,699 399,700 400,700 401,700 402,701 403,701 404,701 405,702 406,702 407,702 408,703 409,703 410,703 411,704 412,704 413,704 414,704 415,705 416,705 417,705 418,706 419,706 420,706 421,707 422,707 423,707 424,707 425,708 426,708 427,708 428,709 429,709 430,709 431,709 432,710 433,710 434,710 435,711 436,711 437,711 438,711 439,712 440,712 441,712 442,712 443,713 444,713 445,713 446,714 447,714 448,714 449,714 450,715 451,715 452,715 453,715 454,716 455,716 456,716 457,716 458,717 459,717 460,717 461,718 462,718 463,718 464,718 465,719 466,719 467,719 468,719 469,720 470,720 471,720 472,720 473,721 474,721 475,721 476,721 477,722 478,722 479,722 480,722 481,722 482,723 483,723 484,723 485,723 486,724 487,724 488,724 489,724 490,725 491,725 492,725 493,725 494,726 495,726 496,726 497,726 498,726 499,727 500,727 501,727 502,727 503,728 504,728 505,728 506,728 507,729 508,729 509,729 510,729 511,729 512,730 513,730 514,730 515,730 516,730 517,731 518,731 519,731 520,731 521,732 522,732 523,732 524,732 525,732 " />
  </g>
  <clipPath id="clippath5">
    <path d="M-1,-1 H1797 V982H-1 z M1385,-257 H1545 V-65 H1385 z" clip-rule="evenodd" />
  </clipPath>
  <g clip-path="url(#clippath5)">
    <polyline stroke="#ff0000" stroke-width="1" stroke-dasharray="1,10" stroke-linecap="round" stroke-linejoin="round" fill="none" points="154,23 155,23 156,23 157,23 158,23 159,23 160,23 161,23 162,23 163,23 164,23 165,23 166,23 167,23 168,23 169,23 170,23 171,23 172,23 173,23 174,23 175,23 176,23 177,23 178,23 179,23 180,23 181,23 182,23 183,23 184,23 185,23 186,23 187,23 188,23 189,23 190,23 191,23 192,23 193,23 194,23 195,23 196,23 197,23 198,23 199,23 200,23 201,23 202,23 203,23 204,23 205,23 206,23 207,23 208,23 209,23 210,23 211,23 212,23 213,23 214,23 215,23 216,23 217,23 218,23 219,23 220,23 221,23 222,23 223,23 224,23 225,23 226,23 227,23 228,23 229,23 230,23 231,23 232,23 233,23 234,23 235,23 236,23 237,23 238,23 239,23 240,23 241,23 242,23 243,23 244,23 245,23 246,23 247,23 248,23 249,23 250,23 251,23 252,23 253,23 254,23 255,23 256,23 257,23 258,23 259,23 260,23 261,23 262,23 263,23 264,23 265,23 266,23 267,23 268,23 269,23 270,23 271,23 272,23 273,23 274,23 275,23 276,23 277,23 278,23 279,23 280,23 281,23 282,23 283,23 284,23 285,23 286,23 287,23 288,23 289,23 290,23 291,23 292,23 293,23 294,23 295,23 296,23 297,23 298,23 299,23 300,23 301,23 302,23 303,23 304,23 305,23 306,23 307,23 308,23 309,23 310,23 311,23 312,23 313,23 314,23 315,23 316,23 317,23 318,23 319,23 320,23 321,23 322,23 323,23 324,23 325,23 326,23 327,23 328,23 329,23 330,23 331,23 332,23 333,23 334,23 335,23 336,23 337,23 338,23 339,23 340,23 341,23 342,23 343,23 344,23 345,23 346,23 347,23 348,23 349,23 350,23 351,23 352,23 353,23 354,23 355,23 356,23 357,23 358,23 359,23 360,23 361,23 362,23 363,23 364,23 365,23 366,23 367,23 368,23 369,23 370,23 371,23 372,23 373,23 374,23 375,23 376,23 377,23 378,23 379,23 380,23 381,23 382,23 383,23 384,23 385,23 386,23 387,23 388,23 389,23 390,23 391,23 392,23 393,23 394,23 395,23 396,23 397,23 398,23 399,23 400,23 401,23 402,23 403,23 404,23 405,23 406,23 407,23 408,23 409,23 410,23 411,23 412,23 413,23 414,23 415,23 416,23 417,23 418,23 419,23 420,23 421,23 422,23 423,23 424,23 425,23 426,23 427,23 428,23 429,23 430,23 431,23 432,23 433,23 434,23 435,23 436,23 437,23 438,23 439,23 440,23 441,23 442,23 443,23 444,23 445,23 446,23 447,23 448,23 449,23 450,23 451,23 452,23 453,23 454,23 455,23 456,23 457,23 458,23 459,23 460,23 461,23 462,23 463,23 464,23 465,23 466,23 467,23 468,23 469,23 470,23 471,23 472,23 473,23 474,23 475,23 476,23 477,23 478,23 479,23 480,23 481,23 482,23 483,23 484,23 485,23 486,23 487,23 488,23 489,23 490,23 491,23 492,23 493,23 494,23 495,23 496,23 497,23 498,23 499,23 500,23 501,23 502,23 503,23 504,23 505,23 506,23 507,23 508,23 509,23 510,23 511,23 512,23 513,23 514,23 515,23 516,23 517,23 518,23 519,23 520,23 521,23 522,23 523,23 524,23 525,23 526,23 527,23 528,23 529,23 530,23 531,23 532,23 533,23 534,23 535,23 536,23 537,23 538,23 539,23 540,23 541,23 542,23 543,23 544,23 545,23 546,23 547,23 548,23 549,23 550,23 551,23 552,23 553,23 554,23 555,23 556,23 557,23 558,23 559,23 560,23 561,23 562,23 563,23 564,23 565,23 566,23 567,23 568,23 569,23 570,23 571,23 572,23 573,23 574,23 575,23 576,23 577,23 578,23 579,23 580,23 581,23 582,23 583,23 584,23 585,23 586,23 587,23 588,23 589,23 590,23 591,23 592,23 593,23 594,23 595,23 596,23 597,23 598,23 599,23 600,23 601,23 602,23 603,23 604,23 605,23 606,23 607,23 608,23 609,23 610,23 611,23 612,23 613,23 614,23 615,23 616,23 617,23 618,23 619,23 620,23 621,23 622,23 623,23 624,23 625,23 626,23 627,23 628,23 629,23 630,23 631,23 632,23 633,23 634,23 635,23 636,23 637,23 638,23 639,23 640,23 641,23 642,23 643,23 644,23 645,23 646,23 647,23 648,23 649,23 650,23 651,23 652,23 653,23 654,23 655,23 656,23 657,23 658,23 659,23 660,23 661,23 662,23 663,23 664,23 665,23 666,23 667,23 668,23 669,23 670,23 671,23 672,23 673,23 674,23 675,23 676,23 677,23 678,23 679,23 680,23 681,23 682,23 683,23 684,23 685,23 686,23 687,23 688,23 689,23 690,23 691,23 692,23 693,23 694,23 695,23 696,23 697,23 698,23 699,23 700,23 701,23 702,23 703,23 704,23 705,23 706,23 707,23 708,23 709,23 710,23 711,23 712,23 713,23 714,23 715,23 716,23 717,23 718,23 719,23 720,23 721,23 722,23 723,23 724,23 725,23 726,23 727,23 728,23 729,23 730,23 731,23 732,23 733,23 734,23 735,23 736,23 737,23 738,23 739,23 740,23 741,23 742,23 743,23 744,23 745,23 746,23 747,23 748,23 749,23 750,23 751,23 752,23 753,23 754,23 755,23 756,23 757,23 758,23 759,23 760,23 761,23 762,23 763,23 764,23 765,23 766,23 767,23 768,23 769,23 770,23 771,23 772,23 773,23 774,23 775,23 776,23 777,23 778,23 779,23 780,23 781,23 782,23 783,23 784,23 785,23 786,23 787,23 788,23 789,23 790,23 791,23 792,23 793,23 794,23 795,23 796,23 797,23 798,23 799,23 800,23 801,23 802,23 803,23 804,23 805,23 806,23 807,23 808,23 809,23 810,23 811,23 812,23 813,23 814,23 815,23 816,23 817,23 818,23 819,23 820,23 821,23 822,23 823,23 824,23 825,23 826,23 827,23 828,23 829,23 830,23 831,23 832,23 833,23 834,23 835,23 836,23 837,23 838,23 839,23 840,23 841,23 842,23 843,23 844,23 845,23 846,23 847,23 848,23 849,23 850,23 851,23 852,23 853,23 854,23 855,23 856,23 857,23 858,23 859,23 860,23 861,23 862,23 863,23 864,23 865,23 866,23 867,23 868,23 869,23 870,23 871,23 872,23 873,23 874,23 875,23 876,23 877,23 878,23 879,23 880,23 881,23 882,23 883,23 884,23 885,23 886,23 887,23 888,23 889,23 890,23 891,23 892,23 893,23 894,23 895,23 896,23 897,23 898,23 899,23 900,23 901,23 902,23 903,23 904,23 905,23 906,23 907,23 908,23 909,23 910,23 911,23 912,23 913,23 914,23 915,23 916,23 917,23 918,23 919,23 920,23 921,23 922,23 923,23 924,23 925,23 926,23 927,23 928,23 929,23 930,23 931,23 932,23 933,23 934,23 935,23 936,23 937,23 938,23 939,23 940,23 941,23 942,23 943,23 944,23 945,23 946,23 947,23 948,23 949,23 950,23 951,23 952,23 953,23 954,23 955,23 956,23 957,23 958,23 959,23 960,23 961,23 962,23 963,23 964,23 965,23 966,23 967,23 968,23 969,23 970,23 971,23 972,23 973,23 974,23 975,23 976,23 977,23 978,23 979,23 980,23 981,23 982,23 983,23 984,23 985,23 986,23 987,23 988,23 989,23 990,23 991,23 992,23 993,23 994,23 995,23 996,23 997,23 998,23 999,23 1000,23 1001,23 1002,23 1003,23 1004,23 1005,23 1006,23 1007,23 1008,23 1009,23 1010,23 1011,23 1012,23 1013,23 1014,23 1015,23 1016,23 1017,23 1018,23 1019,23 1020,23 1021,23 1022,23 1023,23 1024,23 1025,23 1026,23 1027,23 1028,23 1029,23 1030,23 1031,23 1032,23 1033,23 1034,23 1035,23 1036,23 1037,23 1038,23 1039,23 1040,23 1041,23 1042,23 1043,23 1044,23 1045,23 1046,23 1047,23 1048,23 1049,23 1050,23 1051,23 1052,23 1053,23 1054,23 1055,23 1056,23 1057,23 1058,23 1059,23 1060,23 1061,23 1062,23 1063,23 1064,23 1065,23 1066,23 1067,23 1068,23 1069,23 1070,23 1071,23 1072,23 1073,23 1074,23 1075,23 1076,23 1077,23 1078,23 1079,23 1080,23 1081,23 1082,23 1083,23 1084,23 1085,23 1086,23 1087,23 1088,23 1089,23 1090,23 1091,23 1092,23 1093,23 1094,23 1095,23 1096,23 1097,23 1098,23 1099,23 1100,23 1101,23 1102,23 1103,23 1104,23 1105,23 1106,23 1107,23 1108,23 1109,23 1110,23 1111,23 1112,23 1113,23 1114,23 1115,23 1116,23 1117,23 1118,23 1119,23 1120,23 1121,23 1122,23 1123,23 1124,23 1125,23 1126,23 1127,23 1128,23 1129,23 1130,23 1131,23 1132,23 1133,23 1134,23 1135,23 1136,23 1137,23 1138,23 1139,23 1140,23 1141,23 1142,23 1143,23 1144,23 1145,23 1146,23 1147,23 1148,23 1149,23 1150,23 1151,23 1152,23 1153,23 1154,23 1155,23 1156,23 1157,23 1158,23 1159,23 1160,23 1161,23 1162,23 1163,23 1164,23 1165,23 1166,23 1167,23 1168,23 1169,23 1170,23 1171,23 1172,23 1173,23 1174,23 1175,23 1176,23 1177,23 1178,23 1179,23 1180,23 1181,23 1182,23 1183,23 1184,23 1185,23 1186,23 1187,23 1188,23 1189,23 1190,23 1191,23 1192,23 1193,23 1194,23 1195,23 1196,23 1197,23 1198,23 1199,23 1200,23 1201,23 1202,23 1203,23 1204,23 1205,23 1206,23 1207,23 1208,23 1209,23 1210,23 1211,23 1212,23 1213,23 1214,23 1215,23 1216,23 1217,23 1218,23 1219,23 1220,23 1221,23 1222,23 1223,23 1224,23 1225,23 1226,23 1227,23 1228,23 1229,23 1230,23 1231,23 1232,23 1233,23 1234,23 1235,23 1236,23 1237,23 1238,23 1239,23 1240,23 1241,23 1242,23 1243,23 1244,23 1245,23 1246,23 1247,23 1248,23 1249,23 1250,23 1251,23 1252,23 1253,23 1254,23 1255,23 1256,23 1257,23 1258,23 1259,23 1260,23 1261,23 1262,23 1263,23 1264,23 1265,23 1266,23 1267,23 1268,23 1269,23 1270,23 1271,23 1272,23 1273,23 1274,23 1275,23 1276,23 1277,23 1278,23 1279,23 1280,23 1281,23 1282,23 1283,23 1284,23 1285,23 1286,23 1287,23 1288,23 1289,23 1290,23 1291,23 1292,23 1293,23 1294,23 1295,23 1296,23 1297,23 1298,23 1299,23 1300,23 1301,23 1302,23 1303,23 1304,23 1305,23 1306,23 1307,23 1308,23 1309,23 1310,23 1311,23 1312,23 1313,23 1314,23 1315,23 1316,23 1317,23 1318,23 1319,23 1320,23 1321,23 1322,23 1323,23 1324,23 1325,23 1326,23 1327,23 1328,23 1329,23 1330,23 1331,23 1332,23 1333,23 1334,23 1335,23 1336,23 1337,23 1338,23 1339,23 1340,23 1341,23 1342,23 1343,23 1344,23 1345,23 1346,23 1347,23 1348,23 1349,23 1350,23 1351,23 1352,23 1353,23 1354,23 1355,23 1356,23 1357,23 1358,23 1359,23 1360,23 1361,23 1362,23 1363,23 1364,23 1365,23 1366,23 1367,23 1368,23 1369,23 1370,23 1371,23 1372,23 1373,23 1374,23 1375,23 1376,23 1377,23 1378,23 1379,23 1380,23 1381,23 1382,23 1383,23 1384,23 1385,23 1386,23 1387,23 1388,23 1389,23 1390,23 1391,23 1392,23 1393,23 1394,23 1395,23 1396,23 1397,23 1398,23 1399,23 1400,23 1401,23 1402,23 1403,23 1404,23 1405,23 1406,23 1407,23 1408,23 1409,23 1410,23 1411,23 1412,23 1413,23 1414,23 1415,23 1416,23 1417,23 1418,23 1419,23 1420,23 1421,23 1422,23 1423,23 1424,23 1425,23 1426,23 1427,23 1428,23 1429,23 1430,23 1431,23 1432,23 1433,23 1434,23 1435,23 1436,23 1437,23 1438,23 1439,23 1440,23 1441,23 1442,23 1443,23 1444,23 1445,23 1446,23 1447,23 1448,23 1449,23 1450,23 1451,23 1452,23 1453,23 1454,23 1455,23 1456,23 1457,23 1458,23 1459,23 1460,23 1461,23 1462,23 1463,23 1464,23 1465,23 1466,23 1467,23 1468,23 1469,23 1470,23 1471,23 1472,23 1473,23 1474,23 1475,23 1476,23 1477,23 1478,23 1479,23 1480,23 1481,23 1482,23 1483,23 1484,23 1485,23 1486,23 1487,23 1488,23 1489,23 1490,23 1491,23 1492,23 1493,23 1494,23 1495,23 1496,23 1497,23 1498,23 1499,23 1500,23 1501,23 1502,23 1503,23 1504,23 1505,23 1506,23 1507,23 1508,23 1509,23 1510,23 1511,23 1512,23 1513,23 1514,23 1515,23 1516,23 1517,23 1518,23 1519,23 1520,23 1521,23 1522,23 1523,23 1524,23 1525,23 1526,23 1527,23 1528,23 1529,23 1530,23 1531,23 1532,23 1533,23 1534,23 1535,23 1536,23 1537,23 1538,23 1539,23 1540,23 1541,23 1542,23 1543,23 1544,23 1545,23 1546,23 1547,23 1548,23 1549,23 1550,23 1551,23 1552,23 1553,23 1554,23 1555,23 1556,23 1557,23 1558,23 1559,23 1560,23 1561,23 1562,23 1563,23 1564,23 1565,23 1566,23 1567,23 1568,23 1569,23 1570,23 1571,23 1572,23 1573,23 1574,23 1575,23 1576,23 1577,23 1578,23 1579,23 1580,23 1581,23 1582,23 1583,23 1584,23 1585,23 1586,23 1587,23 1588,23 1589,23 1590,23 1591,23 1592,23 1593,23 1594,23 1595,23 1596,23 1597,23 1598,23 1599,23 1600,23 1601,23 1602,23 1603,23 1604,23 1605,23 1606,23 1607,23 1608,23 1609,23 1610,23 1611,23 1612,23 1613,23 1614,23 1615,23 1616,23 1617,23 1618,23 1619,23 1620,23 1621,23 1622,23 1623,23 1624,23 1625,23 1626,23 1627,23 1628,23 1629,23 1630,23 1631,23 1632,23 1633,23 1634,23 1635,23 1636,23 1637,23 1638,23 1639,23 1640,23 1641,23 1642,23 1643,23 1644,23 1645,23 1646,23 1647,23 1648,23 1649,23 1650,23 1651,23 1652,23 1653,23 1654,23 1655,23 1656,23 1657,23 1658,23 1659,23 1660,23 1661,23 1662,23 1663,23 1664,23 1665,23 1666,23 1667,23 1668,23 1669,23 1670,23 1671,23 1672,23 1673,23 1674,23 1675,23 1676,23 1677,23 1678,23 1679,23 1680,23 1681,23 1682,23 1683,23 1684,23 1685,23 1686,23 1687,23 1688,23 1689,23 1690,23 1691,23 1692,23 1693,23 1694,23 1695,23 1696,23 1697,23 1698,23 1699,23 1700,23 1701,23 1702,23 1703,23 1704,23 1705,23 1706,23 1707,23 1708,23 1709,23 1710,23 1711,23 1712,23 1713,23 1714,23 1715,23 1716,23 1717,23 1718,23 1719,23 1720,23 1721,23 1722,23 1723,23 1724,23 1725,23 1726,23 1727,23 1728,23 1729,23 1730,23 1731,23 1732,23 1733,23 1734,23 1735,23 1736,23 1737,23 1738,23 1739,23 1740,23 1741,23 1742,23 1743,23 1744,23 1745,23 1746,23 1747,23 1748,23 1749,23 1750,23 1751,23 1752,23 1753,23 1754,23 1755,23 1756,23 1757,23 1758,23 1759,23 1760,23 1761,23 1762,23 1763,23 1764,23 1765,23 1766,23 1767,23 1768,23 1769,23 1770,23 1771,23 1772,23 1773,23 1774,23 1775,23 1776,23 1777,23 1778,23 1779,23 1780,23 1781,23 1782,23 1783,23 1784,23 1785,23 1786,23 1787,23 1788,23 1789,23 1790,23 1791,23 1792,23 1793,23 1794,23 1795,23 1796,23 1797,23 " />
  </g>
  <clipPath id="clippath6">
    <path d="M-1,-1 H1797 V982H-1 z M1385,-257 H1545 V-65 H1385 z" clip-rule="evenodd" />
  </clipPath>
  <g clip-path="url(#clippath6)">
    <polyline stroke="#008000" stroke-width="1" stroke-dasharray="1,10" stroke-linecap="round" stroke-linejoin="round" fill="none" points="154,732 155,732 156,732 157,732 158,732 159,732 160,732 161,732 162,732 163,732 164,732 165,732 166,732 167,732 168,732 169,732 170,732 171,732 172,732 173,732 174,732 175,732 176,732 177,732 178,732 179,732 180,732 181,732 182,732 183,732 184,732 185,732 186,732 187,732 188,732 189,732 190,732 191,732 192,732 193,732 194,732 195,732 196,732 197,732 198,732 199,732 200,732 201,732 202,732 203,732 204,732 205,732 206,732 207,732 208,732 209,732 210,732 211,732 212,732 213,732 214,732 215,732 216,732 217,732 218,732 219,732 220,732 221,732 222,732 223,732 224,732 225,732 226,732 227,732 228,732 229,732 230,732 231,732 232,732 233,732 234,732 235,732 236,732 237,732 238,732 239,732 240,732 241,732 242,732 243,732 244,732 245,732 246,732 247,732 248,732 249,732 250,732 251,732 252,732 253,732 254,732 255,732 256,732 257,732 258,732 259,732 260,732 261,732 262,732 263,732 264,732 265,732 266,732 267,732 268,732 269,732 270,732 271,732 272,732 273,732 274,732 275,732 276,732 277,732 278,732 279,732 280,732 281,732 282,732 283,732 284,732 285,732 286,732 287,732 288,732 289,732 290,732 291,732 292,732 293,732 294,732 295,732 296,732 297,732 298,732 299,732 300,732 301,732 302,732 303,732 304,732 305,732 306,732 307,732 308,732 309,732 310,732 311,732 312,732 313,732 314,732 315,732 316,732 317,732 318,732 319,732 320,732 321,732 322,732 323,732 324,732 325,732 326,732 327,732 328,732 329,732 330,732 331,732 332,732 333,732 334,732 335,732 336,732 337,732 338,732 339,732 340,732 341,732 342,732 343,732 344,732 345,732 346,732 347,732 348,732 349,732 350,732 351,732 352,732 353,732 354,732 355,732 356,732 357,732 358,732 359,732 360,732 361,732 362,732 363,732 364,732 365,732 366,732 367,732 368,732 369,732 370,732 371,732 372,732 373,732 374,732 375,732 376,732 377,732 378,732 379,732 380,732 381,732 382,732 383,732 384,732 385,732 386,732 387,732 388,732 389,732 390,732 391,732 392,732 393,732 394,732 395,732 396,732 397,732 398,732 399,732 400,732 401,732 402,732 403,732 404,732 405,732 406,732 407,732 408,732 409,732 410,732 411,732 412,732 413,732 414,732 415,732 416,732 417,732 418,732 419,732 420,732 421,732 422,732 423,732 424,732 425,732 426,732 427,732 428,732 429,732 430,732 431,732 432,732 433,732 434,732 435,732 436,732 437,732 438,732 439,732 440,732 441,732 442,732 443,732 444,732 445,732 446,732 447,732 448,732 449,732 450,732 451,732 452,732 453,732 454,732 455,732 456,732 457,732 458,732 459,732 460,732 461,732 462,732 463,732 464,732 465,732 466,732 467,732 468,732 469,732 470,732 471,732 472,732 473,732 474,732 475,732 476,732 477,732 478,732 479,732 480,732 481,732 482,732 483,732 484,732 485,732 486,732 487,732 488,732 489,732 490,732 491,732 492,732 493,732 494,732 495,732 496,732 497,732 498,732 499,732 500,732 501,732 502,732 503,732 504,732 505,732 506,732 507,732 508,732 509,732 510,732 511,732 512,732 513,732 514,732 515,732 516,732 517,732 518,732 519,732 520,732 521,732 522,732 523,732 524,732 525,732 526,732 527,732 528,732 529,732 530,732 531,732 532,732 533,732 534,732 535,732 536,732 537,732 538,732 539,732 540,732 541,732 542,732 543,732 544,732 545,732 546,732 547,732 548,732 549,732 550,732 551,732 552,732 553,732 554,732 555,732 556,732 557,732 558,732 559,732 560,732 561,732 562,732 563,732 564,732 565,732 566,732 567,732 568,732 569,732 570,732 571,732 572,732 573,732 574,732 575,732 576,732 577,732 578,732 579,732 580,732 581,732 582,732 583,732 584,732 585,732 586,732 587,732 588,732 589,732 590,732 591,732 592,732 593,732 594,732 595,732 596,732 597,732 598,732 599,732 600,732 601,732 602,732 603,732 604,732 605,732 606,732 607,732 608,732 609,732 610,732 611,732 612,732 613,732 614,732 615,732 616,732 617,732 618,732 619,732 620,732 621,732 622,732 623,732 624,732 625,732 626,732 627,732 628,732 629,732 630,732 631,732 632,732 633,732 634,732 635,732 636,732 637,732 638,732 639,732 640,732 641,732 642,732 643,732 644,732 645,732 646,732 647,732 648,732 649,732 650,732 651,732 652,732 653,732 654,732 655,732 656,732 657,732 658,732 659,732 660,732 661,732 662,732 663,732 664,732 665,732 666,732 667,732 668,732 669,732 670,732 671,732 672,732 673,732 674,732 675,732 676,732 677,732 678,732 679,732 680,732 681,732 682,732 683,732 684,732 685,732 686,732 687,732 688,732 689,732 690,732 691,732 692,732 693,732 694,732 695,732 696,732 697,732 698,732 699,732 700,732 701,732 702,732 703,732 704,732 705,732 706,732 707,732 708,732 709,732 710,732 711,732 712,732 713,732 714,732 715,732 716,732 717,732 718,732 719,732 720,732 721,732 722,732 723,732 724,732 725,732 726,732 727,732 728,732 729,732 730,732 731,732 732,732 733,732 734,732 735,732 736,732 737,732 738,732 739,732 740,732 741,732 742,732 743,732 744,732 745,732 746,732 747,732 748,732 749,732 750,732 751,732 752,732 753,732 754,732 755,732 756,732 757,732 758,732 759,732 760,732 761,732 762,732 763,732 764,732 765,732 766,732 767,732 768,732 769,732 770,732 771,732 772,732 773,732 774,732 775,732 776,732 777,732 778,732 779,732 780,732 781,732 782,732 783,732 784,732 785,732 786,732 787,732 788,732 789,732 790,732 791,732 792,732 793,732 794,732 795,732 796,732 797,732 798,732 799,732 800,732 801,732 802,732 803,732 804,732 805,732 806,732 807,732 808,732 809,732 810,732 811,732 812,732 813,732 814,732 815,732 816,732 817,732 818,732 819,732 820,732 821,732 822,732 823,732 824,732 825,732 826,732 827,732 828,732 829,732 830,732 831,732 832,732 833,732 834,732 835,732 836,732 837,732 838,732 839,732 840,732 841,732 842,732 843,732 844,732 845,732 846,732 847,732 848,732 849,732 850,732 851,732 852,732 853,732 854,732 855,732 856,732 857,732 858,732 859,732 860,732 861,732 862,732 863,732 864,732 865,732 866,732 867,732 868,732 869,732 870,732 871,732 872,732 873,732 874,732 875,732 876,732 877,732 878,732 879,732 880,732 881,732 882,732 883,732 884,732 885,732 886,732 887,732 888,732 889,732 890,732 891,732 892,732 893,732 894,732 895,732 896,732 897,732 898,732 899,732 900,732 901,732 902,732 903,732 904,732 905,732 906,732 907,732 908,732 909,732 910,732 911,732 912,732 913,732 914,732 915,732 916,732 917,732 918,732 919,732 920,732 921,732 922,732 923,732 924,732 925,732 926,732 927,732 928,732 929,732 930,732 931,732 932,732 933,732 934,732 935,732 936,732 937,732 938,732 939,732 940,732 941,732 942,732 943,732 944,732 945,732 946,732 947,732 948,732 949,732 950,732 951,732 952,732 953,732 954,732 955,732 956,732 957,732 958,732 959,732 960,732 961,732 962,732 963,732 964,732 965,732 966,732 967,732 968,732 969,732 970,732 971,732 972,732 973,732 974,732 975,732 976,732 977,732 978,732 979,732 980,732 981,732 982,732 983,732 984,732 985,732 986,732 987,732 988,732 989,732 990,732 991,732 992,732 993,732 994,732 995,732 996,732 997,732 998,732 999,732 1000,732 1001,732 1002,732 1003,732 1004,732 1005,732 1006,732 1007,732 1008,732 1009,732 1010,732 1011,732 1012,732 1013,732 1014,732 1015,732 1016,732 1017,732 1018,732 1019,732 1020,732 1021,732 1022,732 1023,732 1024,732 1025,732 1026,732 1027,732 1028,732 1029,732 1030,732 1031,732 1032,732 1033,732 1034,732 1035,732 1036,732 1037,732 1038,732 1039,732 1040,732 1041,732 1042,732 1043,732 1044,732 1045,732 1046,732 1047,732 1048,732 1049,732 1050,732 1051,732 1052,732 1053,732 1054,732 1055,732 1056,732 1057,732 1058,732 1059,732 1060,732 1061,732 1062,732 1063,732 1064,732 1065,732 1066,732 1067,732 1068,732 1069,732 1070,732 1071,732 1072,732 1073,732 1074,732 1075,732 1076,732 1077,732 1078,732 1079,732 1080,732 1081,732 1082,732 1083,732 1084,732 1085,732 1086,732 1087,732 1088,732 1089,732 1090,732 1091,732 1092,732 1093,732 1094,732 1095,732 1096,732 1097,732 1098,732 1099,732 1100,732 1101,732 1102,732 1103,732 1104,732 1105,732 1106,732 1107,732 1108,732 1109,732 1110,732 1111,732 1112,732 1113,732 1114,732 1115,732 1116,732 1117,732 1118,732 1119,732 1120,732 1121,732 1122,732 1123,732 1124,732 1125,732 1126,732 1127,732 1128,732 1129,732 1130,732 1131,732 1132,732 1133,732 1134,732 1135,732 1136,732 1137,732 1138,732 1139,732 1140,732 1141,732 1142,732 1143,732 1144,732 1145,732 1146,732 1147,732 1148,732 1149,732 1150,732 1151,732 1152,732 1153,732 1154,732 1155,732 1156,732 1157,732 1158,732 1159,732 1160,732 1161,732 1162,732 1163,732 1164,732 1165,732 1166,732 1167,732 1168,732 1169,732 1170,732 1171,732 1172,732 1173,732 1174,732 1175,732 1176,732 1177,732 1178,732 1179,732 1180,732 1181,732 1182,732 1183,732 1184,732 1185,732 1186,732 1187,732 1188,732 1189,732 1190,732 1191,732 1192,732 1193,732 1194,732 1195,732 1196,732 1197,732 1198,732 1199,732 1200,732 1201,732 1202,732 1203,732 1204,732 1205,732 1206,732 1207,732 1208,732 1209,732 1210,732 1211,732 1212,732 1213,732 1214,732 1215,732 1216,732 1217,732 1218,732 1219,732 1220,732 1221,732 1222,732 1223,732 1224,732 1225,732 1226,732 1227,732 1228,732 1229,732 1230,732 1231,732 1232,732 1233,732 1234,732 1235,732 1236,732 1237,732 1238,732 1239,732 1240,732 1241,732 1242,732 1243,732 1244,732 1245,732 1246,732 1247,732 1248,732 1249,732 1250,732 1251,732 1252,732 1253,732 1254,732 1255,732 1256,732 1257,732 1258,732 1259,732 1260,732 1261,732 1262,732 1263,732 1264,732 1265,732 1266,732 1267,732 1268,732 1269,732 1270,732 1271,732 1272,732 1273,732 1274,732 1275,732 1276,732 1277,732 1278,732 1279,732 1280,732 1281,732 1282,732 1283,732 1284,732 1285,732 1286,732 1287,732 1288,732 1289,732 1290,732 1291,732 1292,732 1293,732 1294,732 1295,732 1296,732 1297,732 1298,732 1299,732 1300,732 1301,732 1302,732 1303,732 1304,732 1305,732 1306,732 1307,732 1308,732 1309,732 1310,732 1311,732 1312,732 1313,732 1314,732 1315,732 1316,732 1317,732 1318,732 1319,732 1320,732 1321,732 1322,732 1323,732 1324,732 1325,732 1326,732 1327,732 1328,732 1329,732 1330,732 1331,732 1332,732 1333,732 1334,732 1335,732 1336,732 1337,732 1338,732 1339,732 1340,732 1341,732 1342,732 1343,732 1344,732 1345,732 1346,732 1347,732 1348,732 1349,732 1350,732 1351,732 1352,732 1353,732 1354,732 1355,732 1356,732 1357,732 1358,732 1359,732 1360,732 1361,732 1362,732 1363,732 1364,732 1365,732 1366,732 1367,732 1368,732 1369,732 1370,732 1371,732 1372,732 1373,732 1374,732 1375,732 1376,732 1377,732 1378,732 1379,732 1380,732 1381,732 1382,732 1383,732 1384,732 1385,732 1386,732 1387,732 1388,732 1389,732 1390,732 1391,732 1392,732 1393,732 1394,732 1395,732 1396,732 1397,732 1398,732 1399,732 1400,732 1401,732 1402,732 1403,732 1404,732 1405,732 1406,732 1407,732 1408,732 1409,732 1410,732 1411,732 1412,732 1413,732 1414,732 1415,732 1416,732 1417,732 1418,732 1419,732 1420,732 1421,732 1422,732 1423,732 1424,732 1425,732 1426,732 1427,732 1428,732 1429,732 1430,732 1431,732 1432,732 1433,732 1434,732 1435,732 1436,732 1437,732 1438,732 1439,732 1440,732 1441,732 1442,732 1443,732 1444,732 1445,732 1446,732 1447,732 1448,732 1449,732 1450,732 1451,732 1452,732 1453,732 1454,732 1455,732 1456,732 1457,732 1458,732 1459,732 1460,732 1461,732 1462,732 1463,732 1464,732 1465,732 1466,732 1467,732 1468,732 1469,732 1470,732 1471,732 1472,732 1473,732 1474,732 1475,732 1476,732 1477,732 1478,732 1479,732 1480,732 1481,732 1482,732 1483,732 1484,732 1485,732 1486,732 1487,732 1488,732 1489,732 1490,732 1491,732 1492,732 1493,732 1494,732 1495,732 1496,732 1497,732 1498,732 1499,732 1500,732 1501,732 1502,732 1503,732 1504,732 1505,732 1506,732 1507,732 1508,732 1509,732 1510,732 1511,732 1512,732 1513,732 1514,732 1515,732 1516,732 1517,732 1518,732 1519,732 1520,732 1521,732 1522,732 1523,732 1524,732 1525,732 1526,732 1527,732 1528,732 1529,732 1530,732 1531,732 1532,732 1533,732 1534,732 1535,732 1536,732 1537,732 1538,732 1539,732 1540,732 1541,732 1542,732 1543,732 1544,732 1545,732 1546,732 1547,732 1548,732 1549,732 1550,732 1551,732 1552,732 1553,732 1554,732 1555,732 1556,732 1557,732 1558,732 1559,732 1560,732 1561,732 1562,732 1563,732 1564,732 1565,732 1566,732 1567,732 1568,732 1569,732 1570,732 1571,732 1572,732 1573,732 1574,732 1575,732 1576,732 1577,732 1578,732 1579,732 1580,732 1581,732 1582,732 1583,732 1584,732 1585,732 1586,732 1587,732 1588,732 1589,732 1590,732 1591,732 1592,732 1593,732 1594,732 1595,732 1596,732 1597,732 1598,732 1599,732 1600,732 1601,732 1602,732 1603,732 1604,732 1605,732 1606,732 1607,732 1608,732 1609,732 1610,732 1611,732 1612,732 1613,732 1614,732 1615,732 1616,732 1617,732 1618,732 1619,732 1620,732 1621,732 1622,732 1623,732 1624,732 1625,732 1626,732 1627,732 1628,732 1629,732 1630,732 1631,732 1632,732 1633,732 1634,732 1635,732 1636,732 1637,732 1638,732 1639,732 1640,732 1641,732 1642,732 1643,732 1644,732 1645,732 1646,732 1647,732 1648,732 1649,732 1650,732 1651,732 1652,732 1653,732 1654,732 1655,732 1656,732 1657,732 1658,732 1659,732 1660,732 1661,732 1662,732 1663,732 1664,732 1665,732 1666,732 1667,732 1668,732 1669,732 1670,732 1671,732 1672,732 1673,732 1674,732 1675,732 1676,732 1677,732 1678,732 1679,732 1680,732 1681,732 1682,732 1683,732 1684,732 1685,732 1686,732 1687,732 1688,732 1689,732 1690,732 1691,732 1692,732 1693,732 1694,732 1695,732 1696,732 1697,732 1698,732 1699,732 1700,732 1701,732 1702,732 1703,732 1704,732 1705,732 1706,732 1707,732 1708,732 1709,732 1710,732 1711,732 1712,732 1713,732 1714,732 1715,732 1716,732 1717,732 1718,732 1719,732 1720,732 1721,732 1722,732 1723,732 1724,732 1725,732 1726,732 1727,732 1728,732 1729,732 1730,732 1731,732 1732,732 1733,732 1734,732 1735,732 1736,732 1737,732 1738,732 1739,732 1740,732 1741,732 1742,732 1743,732 1744,732 1745,732 1746,732 1747,732 1748,732 1749,732 1750,732 1751,732 1752,732 1753,732 1754,732 1755,732 1756,732 1757,732 1758,732 1759,732 1760,732 1761,732 1762,732 1763,732 1764,732 1765,732 1766,732 1767,732 1768,732 1769,732 1770,732 1771,732 1772,732 1773,732 1774,732 1775,732 1776,732 1777,732 1778,732 1779,732 1780,732 1781,732 1782,732 1783,732 1784,732 1785,732 1786,732 1787,732 1788,732 1789,732 1790,732 1791,732 1792,732 1793,732 1794,732 1795,732 1796,732 1797,732 " />
  </g>
  <clipPath id="clippath7">
    <path d="M-1,-1 H1797 V982H-1 z M1385,-257 H1545 V-65 H1385 z" clip-rule="evenodd" />
  </clipPath>
  <g clip-path="url(#clippath7)">
    <polyline stroke="#993300" stroke-width="1" stroke-dasharray="1,10" stroke-linecap="round" stroke-linejoin="round" fill="none" points="154,496 155,496 156,496 157,496 158,496 159,496 160,496 161,496 162,496 163,496 164,496 165,496 166,496 167,496 168,496 169,496 170,496 171,496 172,496 173,496 174,496 175,496 176,496 177,496 178,496 179,496 180,496 181,496 182,496 183,496 184,496 185,496 186,496 187,496 188,496 189,496 190,496 191,496 192,496 193,496 194,496 195,496 196,496 197,496 198,496 199,496 200,496 201,496 202,496 203,496 204,496 205,496 206,496 207,496 208,496 209,496 210,496 211,496 212,496 213,496 214,496 215,496 216,496 217,496 218,496 219,496 220,496 221,496 222,496 223,496 224,496 225,496 226,496 227,496 228,496 229,496 230,496 231,496 232,496 233,496 234,496 235,496 236,496 237,496 238,496 239,496 240,496 241,496 242,496 243,496 244,496 245,496 246,496 247,496 248,496 249,496 250,496 251,496 252,496 253,496 254,496 255,496 256,496 257,496 258,496 259,496 260,496 261,496 262,496 263,496 264,496 265,496 266,496 267,496 268,496 269,496 270,496 271,496 272,496 273,496 274,496 275,496 276,496 277,496 278,496 279,496 280,496 281,496 282,496 283,496 284,496 285,496 286,496 287,496 288,496 289,496 290,496 291,496 292,496 293,496 294,496 295,496 296,496 297,496 298,496 299,496 300,496 301,496 302,496 303,496 304,496 305,496 306,496 307,496 308,496 309,496 310,496 311,496 312,496 313,496 314,496 315,496 316,496 317,496 318,496 319,496 320,496 321,496 322,496 323,496 324,496 325,496 326,496 327,496 328,496 329,496 330,496 331,496 332,496 333,496 334,496 335,496 336,496 337,496 338,496 339,496 340,496 341,496 342,496 343,496 344,496 345,496 346,496 347,496 348,496 349,496 350,496 351,496 352,496 353,496 354,496 355,496 356,496 357,496 358,496 359,496 360,496 361,496 362,496 363,496 364,496 365,496 366,496 367,496 368,496 369,496 370,496 371,496 372,496 373,496 374,496 375,496 376,496 377,496 378,496 379,496 380,496 381,496 382,496 383,496 384,496 385,496 386,496 387,496 388,496 389,496 390,496 391,496 392,496 393,496 394,496 395,496 396,496 397,496 398,496 399,496 400,496 401,496 402,496 403,496 404,496 405,496 406,496 407,496 408,496 409,496 410,496 411,496 412,496 413,496 414,496 415,496 416,496 417,496 418,496 419,496 420,496 421,496 422,496 423,496 424,496 425,496 426,496 427,496 428,496 429,496 430,496 431,496 432,496 433,496 434,496 435,496 436,496 437,496 438,496 439,496 440,496 441,496 442,496 443,496 444,496 445,496 446,496 447,496 448,496 449,496 450,496 451,496 452,496 453,496 454,496 455,496 456,496 457,496 458,496 459,496 460,496 461,496 462,496 463,496 464,496 465,496 466,496 467,496 468,496 469,496 470,496 471,496 472,496 473,496 474,496 475,496 476,496 477,496 478,496 479,496 480,496 481,496 482,496 483,496 484,496 485,496 486,496 487,496 488,496 489,496 490,496 491,496 492,496 493,496 494,496 495,496 496,496 497,496 498,496 499,496 500,496 501,496 502,496 503,496 504,496 505,496 506,496 507,496 508,496 509,496 510,496 511,496 512,496 513,496 514,496 515,496 516,496 517,496 518,496 519,496 520,496 521,496 522,496 523,496 524,496 525,496 526,496 527,496 528,496 529,496 530,496 531,496 532,496 533,496 534,496 535,496 536,496 537,496 538,496 539,496 540,496 541,496 542,496 543,496 544,496 545,496 546,496 547,496 548,496 549,496 550,496 551,496 552,496 553,496 554,496 555,496 556,496 557,496 558,496 559,496 560,496 561,496 562,496 563,496 564,496 565,496 566,496 567,496 568,496 569,496 570,496 571,496 572,496 573,496 574,496 575,496 576,496 577,496 578,496 579,496 580,496 581,496 582,496 583,496 584,496 585,496 586,496 587,496 588,496 589,496 590,496 591,496 592,496 593,496 594,496 595,496 596,496 597,496 598,496 599,496 600,496 601,496 602,496 603,496 604,496 605,496 606,496 607,496 608,496 609,496 610,496 611,496 612,496 613,496 614,496 615,496 616,496 617,496 618,496 619,496 620,496 621,496 622,496 623,496 624,496 625,496 626,496 627,496 628,496 629,496 630,496 631,496 632,496 633,496 634,496 635,496 636,496 637,496 638,496 639,496 640,496 641,496 642,496 643,496 644,496 645,496 646,496 647,496 648,496 649,496 650,496 651,496 652,496 653,496 654,496 655,496 656,496 657,496 658,496 659,496 660,496 661,496 662,496 663,496 664,496 665,496 666,496 667,496 668,496 669,496 670,496 671,496 672,496 673,496 674,496 675,496 676,496 677,496 678,496 679,496 680,496 681,496 682,496 683,496 684,496 685,496 686,496 687,496 688,496 689,496 690,496 691,496 692,496 693,496 694,496 695,496 696,496 697,496 698,496 699,496 700,496 701,496 702,496 703,496 704,496 705,496 706,496 707,496 708,496 709,496 710,496 711,496 712,496 713,496 714,496 715,496 716,496 717,496 718,496 719,496 720,496 721,496 722,496 723,496 724,496 725,496 726,496 727,496 728,496 729,496 730,496 731,496 732,496 733,496 734,496 735,496 736,496 737,496 738,496 739,496 740,496 741,496 742,496 743,496 744,496 745,496 746,496 747,496 748,496 749,496 750,496 751,496 752,496 753,496 754,496 755,496 756,496 757,496 758,496 759,496 760,496 761,496 762,496 763,496 764,496 765,496 766,496 767,496 768,496 769,496 770,496 771,496 772,496 773,496 774,496 775,496 776,496 777,496 778,496 779,496 780,496 781,496 782,496 783,496 784,496 785,496 786,496 787,496 788,496 789,496 790,496 791,496 792,496 793,496 794,496 795,496 796,496 797,496 798,496 799,496 800,496 801,496 802,496 803,496 804,496 805,496 806,496 807,496 808,496 809,496 810,496 811,496 812,496 813,496 814,496 815,496 816,496 817,496 818,496 819,496 820,496 821,496 822,496 823,496 824,496 825,496 826,496 827,496 828,496 829,496 830,496 831,496 832,496 833,496 834,496 835,496 836,496 837,496 838,496 839,496 840,496 841,496 842,496 843,496 844,496 845,496 846,496 847,496 848,496 849,496 850,496 851,496 852,496 853,496 854,496 855,496 856,496 857,496 858,496 859,496 860,496 861,496 862,496 863,496 864,496 865,496 866,496 867,496 868,496 869,496 870,496 871,496 872,496 873,496 874,496 875,496 876,496 877,496 878,496 879,496 880,496 881,496 882,496 883,496 884,496 885,496 886,496 887,496 888,496 889,496 890,496 891,496 892,496 893,496 894,496 895,496 896,496 897,496 898,496 899,496 900,496 901,496 902,496 903,496 904,496 905,496 906,496 907,496 908,496 909,496 910,496 911,496 912,496 913,496 914,496 915,496 916,496 917,496 918,496 919,496 920,496 921,496 922,496 923,496 924,496 925,496 926,496 927,496 928,496 929,496 930,496 931,496 932,496 933,496 934,496 935,496 936,496 937,496 938,496 939,496 940,496 941,496 942,496 943,496 944,496 945,496 946,496 947,496 948,496 949,496 950,496 951,496 952,496 953,496 954,496 955,496 956,496 957,496 958,496 959,496 960,496 961,496 962,496 963,496 964,496 965,496 966,496 967,496 968,496 969,496 970,496 971,496 972,496 973,496 974,496 975,496 976,496 977,496 978,496 979,496 980,496 981,496 982,496 983,496 984,496 985,496 986,496 987,496 988,496 989,496 990,496 991,496 992,496 993,496 994,496 995,496 996,496 997,496 998,496 999,496 1000,496 1001,496 1002,496 1003,496 1004,496 1005,496 1006,496 1007,496 1008,496 1009,496 1010,496 1011,496 1012,496 1013,496 1014,496 1015,496 1016,496 1017,496 1018,496 1019,496 1020,496 1021,496 1022,496 1023,496 1024,496 1025,496 1026,496 1027,496 1028,496 1029,496 1030,496 1031,496 1032,496 1033,496 1034,496 1035,496 1036,496 1037,496 1038,496 1039,496 1040,496 1041,496 1042,496 1043,496 1044,496 1045,496 1046,496 1047,496 1048,496 1049,496 1050,496 1051,496 1052,496 1053,496 1054,496 1055,496 1056,496 1057,496 1058,496 1059,496 1060,496 1061,496 1062,496 1063,496 1064,496 1065,496 1066,496 1067,496 1068,496 1069,496 1070,496 1071,496 1072,496 1073,496 1074,496 1075,496 1076,496 1077,496 1078,496 1079,496 1080,496 1081,496 1082,496 1083,496 1084,496 1085,496 1086,496 1087,496 1088,496 1089,496 1090,496 1091,496 1092,496 1093,496 1094,496 1095,496 1096,496 1097,496 1098,496 1099,496 1100,496 1101,496 1102,496 1103,496 1104,496 1105,496 1106,496 1107,496 1108,496 1109,496 1110,496 1111,496 1112,496 1113,496 1114,496 1115,496 1116,496 1117,496 1118,496 1119,496 1120,496 1121,496 1122,496 1123,496 1124,496 1125,496 1126,496 1127,496 1128,496 1129,496 1130,496 1131,496 1132,496 1133,496 1134,496 1135,496 1136,496 1137,496 1138,496 1139,496 1140,496 1141,496 1142,496 1143,496 1144,496 1145,496 1146,496 1147,496 1148,496 1149,496 1150,496 1151,496 1152,496 1153,496 1154,496 1155,496 1156,496 1157,496 1158,496 1159,496 1160,496 1161,496 1162,496 1163,496 1164,496 1165,496 1166,496 1167,496 1168,496 1169,496 1170,496 1171,496 1172,496 1173,496 1174,496 1175,496 1176,496 1177,496 1178,496 1179,496 1180,496 1181,496 1182,496 1183,496 1184,496 1185,496 1186,496 1187,496 1188,496 1189,496 1190,496 1191,496 1192,496 1193,496 1194,496 1195,496 1196,496 1197,496 1198,496 1199,496 1200,496 1201,496 1202,496 1203,496 1204,496 1205,496 1206,496 1207,496 1208,496 1209,496 1210,496 1211,496 1212,496 1213,496 1214,496 1215,496 1216,496 1217,496 1218,496 1219,496 1220,496 1221,496 1222,496 1223,496 1224,496 1225,496 1226,496 1227,496 1228,496 1229,496 1230,496 1231,496 1232,496 1233,496 1234,496 1235,496 1236,496 1237,496 1238,496 1239,496 1240,496 1241,496 1242,496 1243,496 1244,496 1245,496 1246,496 1247,496 1248,496 1249,496 1250,496 1251,496 1252,496 1253,496 1254,496 1255,496 1256,496 1257,496 1258,496 1259,496 1260,496 1261,496 1262,496 1263,496 1264,496 1265,496 1266,496 1267,496 1268,496 1269,496 1270,496 1271,496 1272,496 1273,496 1274,496 1275,496 1276,496 1277,496 1278,496 1279,496 1280,496 1281,496 1282,496 1283,496 1284,496 1285,496 1286,496 1287,496 1288,496 1289,496 1290,496 1291,496 1292,496 1293,496 1294,496 1295,496 1296,496 1297,496 1298,496 1299,496 1300,496 1301,496 1302,496 1303,496 1304,496 1305,496 1306,496 1307,496 1308,496 1309,496 1310,496 1311,496 1312,496 1313,496 1314,496 1315,496 1316,496 1317,496 1318,496 1319,496 1320,496 1321,496 1322,496 1323,496 1324,496 1325,496 1326,496 1327,496 1328,496 1329,496 1330,496 1331,496 1332,496 1333,496 1334,496 1335,496 1336,496 1337,496 1338,496 1339,496 1340,496 1341,496 1342,496 1343,496 1344,496 1345,496 1346,496 1347,496 1348,496 1349,496 1350,496 1351,496 1352,496 1353,496 1354,496 1355,496 1356,496 1357,496 1358,496 1359,496 1360,496 1361,496 1362,496 1363,496 1364,496 1365,496 1366,496 1367,496 1368,496 1369,496 1370,496 1371,496 1372,496 1373,496 1374,496 1375,496 1376,496 1377,496 1378,496 1379,496 1380,496 1381,496 1382,496 1383,496 1384,496 1385,496 1386,496 1387,496 1388,496 1389,496 1390,496 1391,496 1392,496 1393,496 1394,496 1395,496 1396,496 1397,496 1398,496 1399,496 1400,496 1401,496 1402,496 1403,496 1404,496 1405,496 1406,496 1407,496 1408,496 1409,496 1410,496 1411,496 1412,496 1413,496 1414,496 1415,496 1416,496 1417,496 1418,496 1419,496 1420,496 1421,496 1422,496 1423,496 1424,496 1425,496 1426,496 1427,496 1428,496 1429,496 1430,496 1431,496 1432,496 1433,496 1434,496 1435,496 1436,496 1437,496 1438,496 1439,496 1440,496 1441,496 1442,496 1443,496 1444,496 1445,496 1446,496 1447,496 1448,496 1449,496 1450,496 1451,496 1452,496 1453,496 1454,496 1455,496 1456,496 1457,496 1458,496 1459,496 1460,496 1461,496 1462,496 1463,496 1464,496 1465,496 1466,496 1467,496 1468,496 1469,496 1470,496 1471,496 1472,496 1473,496 1474,496 1475,496 1476,496 1477,496 1478,496 1479,496 1480,496 1481,496 1482,496 1483,496 1484,496 1485,496 1486,496 1487,496 1488,496 1489,496 1490,496 1491,496 1492,496 1493,496 1494,496 1495,496 1496,496 1497,496 1498,496 1499,496 1500,496 1501,496 1502,496 1503,496 1504,496 1505,496 1506,496 1507,496 1508,496 1509,496 1510,496 1511,496 1512,496 1513,496 1514,496 1515,496 1516,496 1517,496 1518,496 1519,496 1520,496 1521,496 1522,496 1523,496 1524,496 1525,496 1526,496 1527,496 1528,496 1529,496 1530,496 1531,496 1532,496 1533,496 1534,496 1535,496 1536,496 1537,496 1538,496 1539,496 1540,496 1541,496 1542,496 1543,496 1544,496 1545,496 1546,496 1547,496 1548,496 1549,496 1550,496 1551,496 1552,496 1553,496 1554,496 1555,496 1556,496 1557,496 1558,496 1559,496 1560,496 1561,496 1562,496 1563,496 1564,496 1565,496 1566,496 1567,496 1568,496 1569,496 1570,496 1571,496 1572,496 1573,496 1574,496 1575,496 1576,496 1577,496 1578,496 1579,496 1580,496 1581,496 1582,496 1583,496 1584,496 1585,496 1586,496 1587,496 1588,496 1589,496 1590,496 1591,496 1592,496 1593,496 1594,496 1595,496 1596,496 1597,496 1598,496 1599,496 1600,496 1601,496 1602,496 1603,496 1604,496 1605,496 1606,496 1607,496 1608,496 1609,496 1610,496 1611,496 1612,496 1613,496 1614,496 1615,496 1616,496 1617,496 1618,496 1619,496 1620,496 1621,496 1622,496 1623,496 1624,496 1625,496 1626,496 1627,496 1628,496 1629,496 1630,496 1631,496 1632,496 1633,496 1634,496 1635,496 1636,496 1637,496 1638,496 1639,496 1640,496 1641,496 1642,496 1643,496 1644,496 1645,496 1646,496 1647,496 1648,496 1649,496 1650,496 1651,496 1652,496 1653,496 1654,496 1655,496 1656,496 1657,496 1658,496 1659,496 1660,496 1661,496 1662,496 1663,496 1664,496 1665,496 1666,496 1667,496 1668,496 1669,496 1670,496 1671,496 1672,496 1673,496 1674,496 1675,496 1676,496 1677,496 1678,496 1679,496 1680,496 1681,496 1682,496 1683,496 1684,496 1685,496 1686,496 1687,496 1688,496 1689,496 1690,496 1691,496 1692,496 1693,496 1694,496 1695,496 1696,496 1697,496 1698,496 1699,496 1700,496 1701,496 1702,496 1703,496 1704,496 1705,496 1706,496 1707,496 1708,496 1709,496 1710,496 1711,496 1712,496 1713,496 1714,496 1715,496 1716,496 1717,496 1718,496 1719,496 1720,496 1721,496 1722,496 1723,496 1724,496 1725,496 1726,496 1727,496 1728,496 1729,496 1730,496 1731,496 1732,496 1733,496 1734,496 1735,496 1736,496 1737,496 1738,496 1739,496 1740,496 1741,496 1742,496 1743,496 1744,496 1745,496 1746,496 1747,496 1748,496 1749,496 1750,496 1751,496 1752,496 1753,496 1754,496 1755,496 1756,496 1757,496 1758,496 1759,496 1760,496 1761,496 1762,496 1763,496 1764,496 1765,496 1766,496 1767,496 1768,496 1769,496 1770,496 1771,496 1772,496 1773,496 1774,496 1775,496 1776,496 1777,496 1778,496 1779,496 1780,496 1781,496 1782,496 1783,496 1784,496 1785,496 1786,496 1787,496 1788,496 1789,496 1790,496 1791,496 1792,496 1793,496 1794,496 1795,496 1796,496 1797,496 " />
  </g>
  <clipPath id="clippath8">
    <path d="M-1,-1 H1797 V982H-1 z M1385,-257 H1545 V-65 H1385 z" clip-rule="evenodd" />
  </clipPath>
  <g clip-path="url(#clippath8)">
    <polyline stroke="#cc3300" stroke-width="1" stroke-dasharray="1,10" stroke-linecap="round" stroke-linejoin="round" fill="none" points="154,378 155,378 156,378 157,378 158,378 159,378 160,378 161,378 162,378 163,378 164,378 165,378 166,378 167,378 168,378 169,378 170,378 171,378 172,378 173,378 174,378 175,378 176,378 177,378 178,378 179,378 180,378 181,378 182,378 183,378 184,378 185,378 186,378 187,378 188,378 189,378 190,378 191,378 192,378 193,378 194,378 195,378 196,378 197,378 198,378 199,378 200,378 201,378 202,378 203,378 204,378 205,378 206,378 207,378 208,378 209,378 210,378 211,378 212,378 213,378 214,378 215,378 216,378 217,378 218,378 219,378 220,378 221,378 222,378 223,378 224,378 225,378 226,378 227,378 228,378 229,378 230,378 231,378 232,378 233,378 234,378 235,378 236,378 237,378 238,378 239,378 240,378 241,378 242,378 243,378 244,378 245,378 246,378 247,378 248,378 249,378 250,378 251,378 252,378 253,378 254,378 255,378 256,378 257,378 258,378 259,378 260,378 261,378 262,378 263,378 264,378 265,378 266,378 267,378 268,378 269,378 270,378 271,378 272,378 273,378 274,378 275,378 276,378 277,378 278,378 279,378 280,378 281,378 282,378 283,378 284,378 285,378 286,378 287,378 288,378 289,378 290,378 291,378 292,378 293,378 294,378 295,378 296,378 297,378 298,378 299,378 300,378 301,378 302,378 303,378 304,378 305,378 306,378 307,378 308,378 309,378 310,378 311,378 312,378 313,378 314,378 315,378 316,378 317,378 318,378 319,378 320,378 321,378 322,378 323,378 324,378 325,378 326,378 327,378 328,378 329,378 330,378 331,378 332,378 333,378 334,378 335,378 336,378 337,378 338,378 339,378 340,378 341,378 342,378 343,378 344,378 345,378 346,378 347,378 348,378 349,378 350,378 351,378 352,378 353,378 354,378 355,378 356,378 357,378 358,378 359,378 360,378 361,378 362,378 363,378 364,378 365,378 366,378 367,378 368,378 369,378 370,378 371,378 372,378 373,378 374,378 375,378 376,378 377,378 378,378 379,378 380,378 381,378 382,378 383,378 384,378 385,378 386,378 387,378 388,378 389,378 390,378 391,378 392,378 393,378 394,378 395,378 396,378 397,378 398,378 399,378 400,378 401,378 402,378 403,378 404,378 405,378 406,378 407,378 408,378 409,378 410,378 411,378 412,378 413,378 414,378 415,378 416,378 417,378 418,378 419,378 420,378 421,378 422,378 423,378 424,378 425,378 426,378 427,378 428,378 429,378 430,378 431,378 432,378 433,378 434,378 435,378 436,378 437,378 438,378 439,378 440,378 441,378 442,378 443,378 444,378 445,378 446,378 447,378 448,378 449,378 450,378 451,378 452,378 453,378 454,378 455,378 456,378 457,378 458,378 459,378 460,378 461,378 462,378 463,378 464,378 465,378 466,378 467,378 468,378 469,378 470,378 471,378 472,378 473,378 474,378 475,378 476,378 477,378 478,378 479,378 480,378 481,378 482,378 483,378 484,378 485,378 486,378 487,378 488,378 489,378 490,378 491,378 492,378 493,378 494,378 495,378 496,378 497,378 498,378 499,378 500,378 501,378 502,378 503,378 504,378 505,378 506,378 507,378 508,378 509,378 510,378 511,378 512,378 513,378 514,378 515,378 516,378 517,378 518,378 519,378 520,378 521,378 522,378 523,378 524,378 525,378 526,378 527,378 528,378 529,378 530,378 531,378 532,378 533,378 534,378 535,378 536,378 537,378 538,378 539,378 540,378 541,378 542,378 543,378 544,378 545,378 546,378 547,378 548,378 549,378 550,378 551,378 552,378 553,378 554,378 555,378 556,378 557,378 558,378 559,378 560,378 561,378 562,378 563,378 564,378 565,378 566,378 567,378 568,378 569,378 570,378 571,378 572,378 573,378 574,378 575,378 576,378 577,378 578,378 579,378 580,378 581,378 582,378 583,378 584,378 585,378 586,378 587,378 588,378 589,378 590,378 591,378 592,378 593,378 594,378 595,378 596,378 597,378 598,378 599,378 600,378 601,378 602,378 603,378 604,378 605,378 606,378 607,378 608,378 609,378 610,378 611,378 612,378 613,378 614,378 615,378 616,378 617,378 618,378 619,378 620,378 621,378 622,378 623,378 624,378 625,378 626,378 627,378 628,378 629,378 630,378 631,378 632,378 633,378 634,378 635,378 636,378 637,378 638,378 639,378 640,378 641,378 642,378 643,378 644,378 645,378 646,378 647,378 648,378 649,378 650,378 651,378 652,378 653,378 654,378 655,378 656,378 657,378 658,378 659,378 660,378 661,378 662,378 663,378 664,378 665,378 666,378 667,378 668,378 669,378 670,378 671,378 672,378 673,378 674,378 675,378 676,378 677,378 678,378 679,378 680,378 681,378 682,378 683,378 684,378 685,378 686,378 687,378 688,378 689,378 690,378 691,378 692,378 693,378 694,378 695,378 696,378 697,378 698,378 699,378 700,378 701,378 702,378 703,378 704,378 705,378 706,378 707,378 708,378 709,378 710,378 711,378 712,378 713,378 714,378 715,378 716,378 717,378 718,378 719,378 720,378 721,378 722,378 723,378 724,378 725,378 726,378 727,378 728,378 729,378 730,378 731,378 732,378 733,378 734,378 735,378 736,378 737,378 738,378 739,378 740,378 741,378 742,378 743,378 744,378 745,378 746,378 747,378 748,378 749,378 750,378 751,378 752,378 753,378 754,378 755,378 756,378 757,378 758,378 759,378 760,378 761,378 762,378 763,378 764,378 765,378 766,378 767,378 768,378 769,378 770,378 771,378 772,378 773,378 774,378 775,378 776,378 777,378 778,378 779,378 780,378 781,378 782,378 783,378 784,378 785,378 786,378 787,378 788,378 789,378 790,378 791,378 792,378 793,378 794,378 795,378 796,378 797,378 798,378 799,378 800,378 801,378 802,378 803,378 804,378 805,378 806,378 807,378 808,378 809,378 810,378 811,378 812,378 813,378 814,378 815,378 816,378 817,378 818,378 819,378 820,378 821,378 822,378 823,378 824,378 825,378 826,378 827,378 828,378 829,378 830,378 831,378 832,378 833,378 834,378 835,378 836,378 837,378 838,378 839,378 840,378 841,378 842,378 843,378 844,378 845,378 846,378 847,378 848,378 849,378 850,378 851,378 852,378 853,378 854,378 855,378 856,378 857,378 858,378 859,378 860,378 861,378 862,378 863,378 864,378 865,378 866,378 867,378 868,378 869,378 870,378 871,378 872,378 873,378 874,378 875,378 876,378 877,378 878,378 879,378 880,378 881,378 882,378 883,378 884,378 885,378 886,378 887,378 888,378 889,378 890,378 891,378 892,378 893,378 894,378 895,378 896,378 897,378 898,378 899,378 900,378 901,378 902,378 903,378 904,378 905,378 906,378 907,378 908,378 909,378 910,378 911,378 912,378 913,378 914,378 915,378 916,378 917,378 918,378 919,378 920,378 921,378 922,378 923,378 924,378 925,378 926,378 927,378 928,378 929,378 930,378 931,378 932,378 933,378 934,378 935,378 936,378 937,378 938,378 939,378 940,378 941,378 942,378 943,378 944,378 945,378 946,378 947,378 948,378 949,378 950,378 951,378 952,378 953,378 954,378 955,378 956,378 957,378 958,378 959,378 960,378 961,378 962,378 963,378 964,378 965,378 966,378 967,378 968,378 969,378 970,378 971,378 972,378 973,378 974,378 975,378 976,378 977,378 978,378 979,378 980,378 981,378 982,378 983,378 984,378 985,378 986,378 987,378 988,378 989,378 990,378 991,378 992,378 993,378 994,378 995,378 996,378 997,378 998,378 999,378 1000,378 1001,378 1002,378 1003,378 1004,378 1005,378 1006,378 1007,378 1008,378 1009,378 1010,378 1011,378 1012,378 1013,378 1014,378 1015,378 1016,378 1017,378 1018,378 1019,378 1020,378 1021,378 1022,378 1023,378 1024,378 1025,378 1026,378 1027,378 1028,378 1029,378 1030,378 1031,378 1032,378 1033,378 1034,378 1035,378 1036,378 1037,378 1038,378 1039,378 1040,378 1041,378 1042,378 1043,378 1044,378 1045,378 1046,378 1047,378 1048,378 1049,378 1050,378 1051,378 1052,378 1053,378 1054,378 1055,378 1056,378 1057,378 1058,378 1059,378 1060,378 1061,378 1062,378 1063,378 1064,378 1065,378 1066,378 1067,378 1068,378 1069,378 1070,378 1071,378 1072,378 1073,378 1074,378 1075,378 1076,378 1077,378 1078,378 1079,378 1080,378 1081,378 1082,378 1083,378 1084,378 1085,378 1086,378 1087,378 1088,378 1089,378 1090,378 1091,378 1092,378 1093,378 1094,378 1095,378 1096,378 1097,378 1098,378 1099,378 1100,378 1101,378 1102,378 1103,378 1104,378 1105,378 1106,378 1107,378 1108,378 1109,378 1110,378 1111,378 1112,378 1113,378 1114,378 1115,378 1116,378 1117,378 1118,378 1119,378 1120,378 1121,378 1122,378 1123,378 1124,378 1125,378 1126,378 1127,378 1128,378 1129,378 1130,378 1131,378 1132,378 1133,378 1134,378 1135,378 1136,378 1137,378 1138,378 1139,378 1140,378 1141,378 1142,378 1143,378 1144,378 1145,378 1146,378 1147,378 1148,378 1149,378 1150,378 1151,378 1152,378 1153,378 1154,378 1155,378 1156,378 1157,378 1158,378 1159,378 1160,378 1161,378 1162,378 1163,378 1164,378 1165,378 1166,378 1167,378 1168,378 1169,378 1170,378 1171,378 1172,378 1173,378 1174,378 1175,378 1176,378 1177,378 1178,378 1179,378 1180,378 1181,378 1182,378 1183,378 1184,378 1185,378 1186,378 1187,378 1188,378 1189,378 1190,378 1191,378 1192,378 1193,378 1194,378 1195,378 1196,378 1197,378 1198,378 1199,378 1200,378 1201,378 1202,378 1203,378 1204,378 1205,378 1206,378 1207,378 1208,378 1209,378 1210,378 1211,378 1212,378 1213,378 1214,378 1215,378 1216,378 1217,378 1218,378 1219,378 1220,378 1221,378 1222,378 1223,378 1224,378 1225,378 1226,378 1227,378 1228,378 1229,378 1230,378 1231,378 1232,378 1233,378 1234,378 1235,378 1236,378 1237,378 1238,378 1239,378 1240,378 1241,378 1242,378 1243,378 1244,378 1245,378 1246,378 1247,378 1248,378 1249,378 1250,378 1251,378 1252,378 1253,378 1254,378 1255,378 1256,378 1257,378 1258,378 1259,378 1260,378 1261,378 1262,378 1263,378 1264,378 1265,378 1266,378 1267,378 1268,378 1269,378 1270,378 1271,378 1272,378 1273,378 1274,378 1275,378 1276,378 1277,378 1278,378 1279,378 1280,378 1281,378 1282,378 1283,378 1284,378 1285,378 1286,378 1287,378 1288,378 1289,378 1290,378 1291,378 1292,378 1293,378 1294,378 1295,378 1296,378 1297,378 1298,378 1299,378 1300,378 1301,378 1302,378 1303,378 1304,378 1305,378 1306,378 1307,378 1308,378 1309,378 1310,378 1311,378 1312,378 1313,378 1314,378 1315,378 1316,378 1317,378 1318,378 1319,378 1320,378 1321,378 1322,378 1323,378 1324,378 1325,378 1326,378 1327,378 1328,378 1329,378 1330,378 1331,378 1332,378 1333,378 1334,378 1335,378 1336,378 1337,378 1338,378 1339,378 1340,378 1341,378 1342,378 1343,378 1344,378 1345,378 1346,378 1347,378 1348,378 1349,378 1350,378 1351,378 1352,378 1353,378 1354,378 1355,378 1356,378 1357,378 1358,378 1359,378 1360,378 1361,378 1362,378 1363,378 1364,378 1365,378 1366,378 1367,378 1368,378 1369,378 1370,378 1371,378 1372,378 1373,378 1374,378 1375,378 1376,378 1377,378 1378,378 1379,378 1380,378 1381,378 1382,378 1383,378 1384,378 1385,378 1386,378 1387,378 1388,378 1389,378 1390,378 1391,378 1392,378 1393,378 1394,378 1395,378 1396,378 1397,378 1398,378 1399,378 1400,378 1401,378 1402,378 1403,378 1404,378 1405,378 1406,378 1407,378 1408,378 1409,378 1410,378 1411,378 1412,378 1413,378 1414,378 1415,378 1416,378 1417,378 1418,378 1419,378 1420,378 1421,378 1422,378 1423,378 1424,378 1425,378 1426,378 1427,378 1428,378 1429,378 1430,378 1431,378 1432,378 1433,378 1434,378 1435,378 1436,378 1437,378 1438,378 1439,378 1440,378 1441,378 1442,378 1443,378 1444,378 1445,378 1446,378 1447,378 1448,378 1449,378 1450,378 1451,378 1452,378 1453,378 1454,378 1455,378 1456,378 1457,378 1458,378 1459,378 1460,378 1461,378 1462,378 1463,378 1464,378 1465,378 1466,378 1467,378 1468,378 1469,378 1470,378 1471,378 1472,378 1473,378 1474,378 1475,378 1476,378 1477,378 1478,378 1479,378 1480,378 1481,378 1482,378 1483,378 1484,378 1485,378 1486,378 1487,378 1488,378 1489,378 1490,378 1491,378 1492,378 1493,378 1494,378 1495,378 1496,378 1497,378 1498,378 1499,378 1500,378 1501,378 1502,378 1503,378 1504,378 1505,378 1506,378 1507,378 1508,378 1509,378 1510,378 1511,378 1512,378 1513,378 1514,378 1515,378 1516,378 1517,378 1518,378 1519,378 1520,378 1521,378 1522,378 1523,378 1524,378 1525,378 1526,378 1527,378 1528,378 1529,378 1530,378 1531,378 1532,378 1533,378 1534,378 1535,378 1536,378 1537,378 1538,378 1539,378 1540,378 1541,378 1542,378 1543,378 1544,378 1545,378 1546,378 1547,378 1548,378 1549,378 1550,378 1551,378 1552,378 1553,378 1554,378 1555,378 1556,378 1557,378 1558,378 1559,378 1560,378 1561,378 1562,378 1563,378 1564,378 1565,378 1566,378 1567,378 1568,378 1569,378 1570,378 1571,378 1572,378 1573,378 1574,378 1575,378 1576,378 1577,378 1578,378 1579,378 1580,378 1581,378 1582,378 1583,378 1584,378 1585,378 1586,378 1587,378 1588,378 1589,378 1590,378 1591,378 1592,378 1593,378 1594,378 1595,378 1596,378 1597,378 1598,378 1599,378 1600,378 1601,378 1602,378 1603,378 1604,378 1605,378 1606,378 1607,378 1608,378 1609,378 1610,378 1611,378 1612,378 1613,378 1614,378 1615,378 1616,378 1617,378 1618,378 1619,378 1620,378 1621,378 1622,378 1623,378 1624,378 1625,378 1626,378 1627,378 1628,378 1629,378 1630,378 1631,378 1632,378 1633,378 1634,378 1635,378 1636,378 1637,378 1638,378 1639,378 1640,378 1641,378 1642,378 1643,378 1644,378 1645,378 1646,378 1647,378 1648,378 1649,378 1650,378 1651,378 1652,378 1653,378 1654,378 1655,378 1656,378 1657,378 1658,378 1659,378 1660,378 1661,378 1662,378 1663,378 1664,378 1665,378 1666,378 1667,378 1668,378 1669,378 1670,378 1671,378 1672,378 1673,378 1674,378 1675,378 1676,378 1677,378 1678,378 1679,378 1680,378 1681,378 1682,378 1683,378 1684,378 1685,378 1686,378 1687,378 1688,378 1689,378 1690,378 1691,378 1692,378 1693,378 1694,378 1695,378 1696,378 1697,378 1698,378 1699,378 1700,378 1701,378 1702,378 1703,378 1704,378 1705,378 1706,378 1707,378 1708,378 1709,378 1710,378 1711,378 1712,378 1713,378 1714,378 1715,378 1716,378 1717,378 1718,378 1719,378 1720,378 1721,378 1722,378 1723,378 1724,378 1725,378 1726,378 1727,378 1728,378 1729,378 1730,378 1731,378 1732,378 1733,378 1734,378 1735,378 1736,378 1737,378 1738,378 1739,378 1740,378 1741,378 1742,378 1743,378 1744,378 1745,378 1746,378 1747,378 1748,378 1749,378 1750,378 1751,378 1752,378 1753,378 1754,378 1755,378 1756,378 1757,378 1758,378 1759,378 1760,378 1761,378 1762,378 1763,378 1764,378 1765,378 1766,378 1767,378 1768,378 1769,378 1770,378 1771,378 1772,378 1773,378 1774,378 1775,378 1776,378 1777,378 1778,378 1779,378 1780,378 1781,378 1782,378 1783,378 1784,378 1785,378 1786,378 1787,378 1788,378 1789,378 1790,378 1791,378 1792,378 1793,378 1794,378 1795,378 1796,378 1797,378 " />
  </g>
  <clipPath id="clippath9">
    <path d="M-1,-1 H1797 V982H-1 z M1385,-257 H1545 V-65 H1385 z" clip-rule="evenodd" />
  </clipPath>
  <g clip-path="url(#clippath9)">
    <polyline stroke="#ff3333" stroke-width="1" stroke-dasharray="1,10" stroke-linecap="round" stroke-linejoin="round" fill="none" points="154,260 155,260 156,260 157,260 158,260 159,260 160,260 161,260 162,260 163,260 164,260 165,260 166,260 167,260 168,260 169,260 170,260 171,260 172,260 173,260 174,260 175,260 176,260 177,260 178,260 179,260 180,260 181,260 182,260 183,260 184,260 185,260 186,260 187,260 188,260 189,260 190,260 191,260 192,260 193,260 194,260 195,260 196,260 197,260 198,260 199,260 200,260 201,260 202,260 203,260 204,260 205,260 206,260 207,260 208,260 209,260 210,260 211,260 212,260 213,260 214,260 215,260 216,260 217,260 218,260 219,260 220,260 221,260 222,260 223,260 224,260 225,260 226,260 227,260 228,260 229,260 230,260 231,260 232,260 233,260 234,260 235,260 236,260 237,260 238,260 239,260 240,260 241,260 242,260 243,260 244,260 245,260 246,260 247,260 248,260 249,260 250,260 251,260 252,260 253,260 254,260 255,260 256,260 257,260 258,260 259,260 260,260 261,260 262,260 263,260 264,260 265,260 266,260 267,260 268,260 269,260 270,260 271,260 272,260 273,260 274,260 275,260 276,260 277,260 278,260 279,260 280,260 281,260 282,260 283,260 284,260 285,260 286,260 287,260 288,260 289,260 290,260 291,260 292,260 293,260 294,260 295,260 296,260 297,260 298,260 299,260 300,260 301,260 302,260 303,260 304,260 305,260 306,260 307,260 308,260 309,260 310,260 311,260 312,260 313,260 314,260 315,260 316,260 317,260 318,260 319,260 320,260 321,260 322,260 323,260 324,260 325,260 326,260 327,260 328,260 329,260 330,260 331,260 332,260 333,260 334,260 335,260 336,260 337,260 338,260 339,260 340,260 341,260 342,260 343,260 344,260 345,260 346,260 347,260 348,260 349,260 350,260 351,260 352,260 353,260 354,260 355,260 356,260 357,260 358,260 359,260 360,260 361,260 362,260 363,260 364,260 365,260 366,260 367,260 368,260 369,260 370,260 371,260 372,260 373,260 374,260 375,260 376,260 377,260 378,260 379,260 380,260 381,260 382,260 383,260 384,260 385,260 386,260 387,260 388,260 389,260 390,260 391,260 392,260 393,260 394,260 395,260 396,260 397,260 398,260 399,260 400,260 401,260 402,260 403,260 404,260 405,260 406,260 407,260 408,260 409,260 410,260 411,260 412,260 413,260 414,260 415,260 416,260 417,260 418,260 419,260 420,260 421,260 422,260 423,260 424,260 425,260 426,260 427,260 428,260 429,260 430,260 431,260 432,260 433,260 434,260 435,260 436,260 437,260 438,260 439,260 440,260 441,260 442,260 443,260 444,260 445,260 446,260 447,260 448,260 449,260 450,260 451,260 452,260 453,260 454,260 455,260 456,260 457,260 458,260 459,260 460,260 461,260 462,260 463,260 464,260 465,260 466,260 467,260 468,260 469,260 470,260 471,260 472,260 473,260 474,260 475,260 476,260 477,260 478,260 479,260 480,260 481,260 482,260 483,260 484,260 485,260 486,260 487,260 488,260 489,260 490,260 491,260 492,260 493,260 494,260 495,260 496,260 497,260 498,260 499,260 500,260 501,260 502,260 503,260 504,260 505,260 506,260 507,260 508,260 509,260 510,260 511,260 512,260 513,260 514,260 515,260 516,260 517,260 518,260 519,260 520,260 521,260 522,260 523,260 524,260 525,260 526,260 527,260 528,260 529,260 530,260 531,260 532,260 533,260 534,260 535,260 536,260 537,260 538,260 539,260 540,260 541,260 542,260 543,260 544,260 545,260 546,260 547,260 548,260 549,260 550,260 551,260 552,260 553,260 554,260 555,260 556,260 557,260 558,260 559,260 560,260 561,260 562,260 563,260 564,260 565,260 566,260 567,260 568,260 569,260 570,260 571,260 572,260 573,260 574,260 575,260 576,260 577,260 578,260 579,260 580,260 581,260 582,260 583,260 584,260 585,260 586,260 587,260 588,260 589,260 590,260 591,260 592,260 593,260 594,260 595,260 596,260 597,260 598,260 599,260 600,260 601,260 602,260 603,260 604,260 605,260 606,260 607,260 608,260 609,260 610,260 611,260 612,260 613,260 614,260 615,260 616,260 617,260 618,260 619,260 620,260 621,260 622,260 623,260 624,260 625,260 626,260 627,260 628,260 629,260 630,260 631,260 632,260 633,260 634,260 635,260 636,260 637,260 638,260 639,260 640,260 641,260 642,260 643,260 644,260 645,260 646,260 647,260 648,260 649,260 650,260 651,260 652,260 653,260 654,260 655,260 656,260 657,260 658,260 659,260 660,260 661,260 662,260 663,260 664,260 665,260 666,260 667,260 668,260 669,260 670,260 671,260 672,260 673,260 674,260 675,260 676,260 677,260 678,260 679,260 680,260 681,260 682,260 683,260 684,260 685,260 686,260 687,260 688,260 689,260 690,260 691,260 692,260 693,260 694,260 695,260 696,260 697,260 698,260 699,260 700,260 701,260 702,260 703,260 704,260 705,260 706,260 707,260 708,260 709,260 710,260 711,260 712,260 713,260 714,260 715,260 716,260 717,260 718,260 719,260 720,260 721,260 722,260 723,260 724,260 725,260 726,260 727,260 728,260 729,260 730,260 731,260 732,260 733,260 734,260 735,260 736,260 737,260 738,260 739,260 740,260 741,260 742,260 743,260 744,260 745,260 746,260 747,260 748,260 749,260 750,260 751,260 752,260 753,260 754,260 755,260 756,260 757,260 758,260 759,260 760,260 761,260 762,260 763,260 764,260 765,260 766,260 767,260 768,260 769,260 770,260 771,260 772,260 773,260 774,260 775,260 776,260 777,260 778,260 779,260 780,260 781,260 782,260 783,260 784,260 785,260 786,260 787,260 788,260 789,260 790,260 791,260 792,260 793,260 794,260 795,260 796,260 797,260 798,260 799,260 800,260 801,260 802,260 803,260 804,260 805,260 806,260 807,260 808,260 809,260 810,260 811,260 812,260 813,260 814,260 815,260 816,260 817,260 818,260 819,260 820,260 821,260 822,260 823,260 824,260 825,260 826,260 827,260 828,260 829,260 830,260 831,260 832,260 833,260 834,260 835,260 836,260 837,260 838,260 839,260 840,260 841,260 842,260 843,260 844,260 845,260 846,260 847,260 848,260 849,260 850,260 851,260 852,260 853,260 854,260 855,260 856,260 857,260 858,260 859,260 860,260 861,260 862,260 863,260 864,260 865,260 866,260 867,260 868,260 869,260 870,260 871,260 872,260 873,260 874,260 875,260 876,260 877,260 878,260 879,260 880,260 881,260 882,260 883,260 884,260 885,260 886,260 887,260 888,260 889,260 890,260 891,260 892,260 893,260 894,260 895,260 896,260 897,260 898,260 899,260 900,260 901,260 902,260 903,260 904,260 905,260 906,260 907,260 908,260 909,260 910,260 911,260 912,260 913,260 914,260 915,260 916,260 917,260 918,260 919,260 920,260 921,260 922,260 923,260 924,260 925,260 926,260 927,260 928,260 929,260 930,260 931,260 932,260 933,260 934,260 935,260 936,260 937,260 938,260 939,260 940,260 941,260 942,260 943,260 944,260 945,260 946,260 947,260 948,260 949,260 950,260 951,260 952,260 953,260 954,260 955,260 956,260 957,260 958,260 959,260 960,260 961,260 962,260 963,260 964,260 965,260 966,260 967,260 968,260 969,260 970,260 971,260 972,260 973,260 974,260 975,260 976,260 977,260 978,260 979,260 980,260 981,260 982,260 983,260 984,260 985,260 986,260 987,260 988,260 989,260 990,260 991,260 992,260 993,260 994,260 995,260 996,260 997,260 998,260 999,260 1000,260 1001,260 1002,260 1003,260 1004,260 1005,260 1006,260 1007,260 1008,260 1009,260 1010,260 1011,260 1012,260 1013,260 1014,260 1015,260 1016,260 1017,260 1018,260 1019,260 1020,260 1021,260 1022,260 1023,260 1024,260 1025,260 1026,260 1027,260 1028,260 1029,260 1030,260 1031,260 1032,260 1033,260 1034,260 1035,260 1036,260 1037,260 1038,260 1039,260 1040,260 1041,260 1042,260 1043,260 1044,260 1045,260 1046,260 1047,260 1048,260 1049,260 1050,260 1051,260 1052,260 1053,260 1054,260 1055,260 1056,260 1057,260 1058,260 1059,260 1060,260 1061,260 1062,260 1063,260 1064,260 1065,260 1066,260 1067,260 1068,260 1069,260 1070,260 1071,260 1072,260 1073,260 1074,260 1075,260 1076,260 1077,260 1078,260 1079,260 1080,260 1081,260 1082,260 1083,260 1084,260 1085,260 1086,260 1087,260 1088,260 1089,260 1090,260 1091,260 1092,260 1093,260 1094,260 1095,260 1096,260 1097,260 1098,260 1099,260 1100,260 1101,260 1102,260 1103,260 1104,260 1105,260 1106,260 1107,260 1108,260 1109,260 1110,260 1111,260 1112,260 1113,260 1114,260 1115,260 1116,260 1117,260 1118,260 1119,260 1120,260 1121,260 1122,260 1123,260 1124,260 1125,260 1126,260 1127,260 1128,260 1129,260 1130,260 1131,260 1132,260 1133,260 1134,260 1135,260 1136,260 1137,260 1138,260 1139,260 1140,260 1141,260 1142,260 1143,260 1144,260 1145,260 1146,260 1147,260 1148,260 1149,260 1150,260 1151,260 1152,260 1153,260 1154,260 1155,260 1156,260 1157,260 1158,260 1159,260 1160,260 1161,260 1162,260 1163,260 1164,260 1165,260 1166,260 1167,260 1168,260 1169,260 1170,260 1171,260 1172,260 1173,260 1174,260 1175,260 1176,260 1177,260 1178,260 1179,260 1180,260 1181,260 1182,260 1183,260 1184,260 1185,260 1186,260 1187,260 1188,260 1189,260 1190,260 1191,260 1192,260 1193,260 1194,260 1195,260 1196,260 1197,260 1198,260 1199,260 1200,260 1201,260 1202,260 1203,260 1204,260 1205,260 1206,260 1207,260 1208,260 1209,260 1210,260 1211,260 1212,260 1213,260 1214,260 1215,260 1216,260 1217,260 1218,260 1219,260 1220,260 1221,260 1222,260 1223,260 1224,260 1225,260 1226,260 1227,260 1228,260 1229,260 1230,260 1231,260 1232,260 1233,260 1234,260 1235,260 1236,260 1237,260 1238,260 1239,260 1240,260 1241,260 1242,260 1243,260 1244,260 1245,260 1246,260 1247,260 1248,260 1249,260 1250,260 1251,260 1252,260 1253,260 1254,260 1255,260 1256,260 1257,260 1258,260 1259,260 1260,260 1261,260 1262,260 1263,260 1264,260 1265,260 1266,260 1267,260 1268,260 1269,260 1270,260 1271,260 1272,260 1273,260 1274,260 1275,260 1276,260 1277,260 1278,260 1279,260 1280,260 1281,260 1282,260 1283,260 1284,260 1285,260 1286,260 1287,260 1288,260 1289,260 1290,260 1291,260 1292,260 1293,260 1294,260 1295,260 1296,260 1297,260 1298,260 1299,260 1300,260 1301,260 1302,260 1303,260 1304,260 1305,260 1306,260 1307,260 1308,260 1309,260 1310,260 1311,260 1312,260 1313,260 1314,260 1315,260 1316,260 1317,260 1318,260 1319,260 1320,260 1321,260 1322,260 1323,260 1324,260 1325,260 1326,260 1327,260 1328,260 1329,260 1330,260 1331,260 1332,260 1333,260 1334,260 1335,260 1336,260 1337,260 1338,260 1339,260 1340,260 1341,260 1342,260 1343,260 1344,260 1345,260 1346,260 1347,260 1348,260 1349,260 1350,260 1351,260 1352,260 1353,260 1354,260 1355,260 1356,260 1357,260 1358,260 1359,260 1360,260 1361,260 1362,260 1363,260 1364,260 1365,260 1366,260 1367,260 1368,260 1369,260 1370,260 1371,260 1372,260 1373,260 1374,260 1375,260 1376,260 1377,260 1378,260 1379,260 1380,260 1381,260 1382,260 1383,260 1384,260 1385,260 1386,260 1387,260 1388,260 1389,260 1390,260 1391,260 1392,260 1393,260 1394,260 1395,260 1396,260 1397,260 1398,260 1399,260 1400,260 1401,260 1402,260 1403,260 1404,260 1405,260 1406,260 1407,260 1408,260 1409,260 1410,260 1411,260 1412,260 1413,260 1414,260 1415,260 1416,260 1417,260 1418,260 1419,260 1420,260 1421,260 1422,260 1423,260 1424,260 1425,260 1426,260 1427,260 1428,260 1429,260 1430,260 1431,260 1432,260 1433,260 1434,260 1435,260 1436,260 1437,260 1438,260 1439,260 1440,260 1441,260 1442,260 1443,260 1444,260 1445,260 1446,260 1447,260 1448,260 1449,260 1450,260 1451,260 1452,260 1453,260 1454,260 1455,260 1456,260 1457,260 1458,260 1459,260 1460,260 1461,260 1462,260 1463,260 1464,260 1465,260 1466,260 1467,260 1468,260 1469,260 1470,260 1471,260 1472,260 1473,260 1474,260 1475,260 1476,260 1477,260 1478,260 1479,260 1480,260 1481,260 1482,260 1483,260 1484,260 1485,260 1486,260 1487,260 1488,260 1489,260 1490,260 1491,260 1492,260 1493,260 1494,260 1495,260 1496,260 1497,260 1498,260 1499,260 1500,260 1501,260 1502,260 1503,260 1504,260 1505,260 1506,260 1507,260 1508,260 1509,260 1510,260 1511,260 1512,260 1513,260 1514,260 1515,260 1516,260 1517,260 1518,260 1519,260 1520,260 1521,260 1522,260 1523,260 1524,260 1525,260 1526,260 1527,260 1528,260 1529,260 1530,260 1531,260 1532,260 1533,260 1534,260 1535,260 1536,260 1537,260 1538,260 1539,260 1540,260 1541,260 1542,260 1543,260 1544,260 1545,260 1546,260 1547,260 1548,260 1549,260 1550,260 1551,260 1552,260 1553,260 1554,260 1555,260 1556,260 1557,260 1558,260 1559,260 1560,260 1561,260 1562,260 1563,260 1564,260 1565,260 1566,260 1567,260 1568,260 1569,260 1570,260 1571,260 1572,260 1573,260 1574,260 1575,260 1576,260 1577,260 1578,260 1579,260 1580,260 1581,260 1582,260 1583,260 1584,260 1585,260 1586,260 1587,260 1588,260 1589,260 1590,260 1591,260 1592,260 1593,260 1594,260 1595,260 1596,260 1597,260 1598,260 1599,260 1600,260 1601,260 1602,260 1603,260 1604,260 1605,260 1606,260 1607,260 1608,260 1609,260 1610,260 1611,260 1612,260 1613,260 1614,260 1615,260 1616,260 1617,260 1618,260 1619,260 1620,260 1621,260 1622,260 1623,260 1624,260 1625,260 1626,260 1627,260 1628,260 1629,260 1630,260 1631,260 1632,260 1633,260 1634,260 1635,260 1636,260 1637,260 1638,260 1639,260 1640,260 1641,260 1642,260 1643,260 1644,260 1645,260 1646,260 1647,260 1648,260 1649,260 1650,260 1651,260 1652,260 1653,260 1654,260 1655,260 1656,260 1657,260 1658,260 1659,260 1660,260 1661,260 1662,260 1663,260 1664,260 1665,260 1666,260 1667,260 1668,260 1669,260 1670,260 1671,260 1672,260 1673,260 1674,260 1675,260 1676,260 1677,260 1678,260 1679,260 1680,260 1681,260 1682,260 1683,260 1684,260 1685,260 1686,260 1687,260 1688,260 1689,260 1690,260 1691,260 1692,260 1693,260 1694,260 1695,260 1696,260 1697,260 1698,260 1699,260 1700,260 1701,260 1702,260 1703,260 1704,260 1705,260 1706,260 1707,260 1708,260 1709,260 1710,260 1711,260 1712,260 1713,260 1714,260 1715,260 1716,260 1717,260 1718,260 1719,260 1720,260 1721,260 1722,260 1723,260 1724,260 1725,260 1726,260 1727,260 1728,260 1729,260 1730,260 1731,260 1732,260 1733,260 1734,260 1735,260 1736,260 1737,260 1738,260 1739,260 1740,260 1741,260 1742,260 1743,260 1744,260 1745,260 1746,260 1747,260 1748,260 1749,260 1750,260 1751,260 1752,260 1753,260 1754,260 1755,260 1756,260 1757,260 1758,260 1759,260 1760,260 1761,260 1762,260 1763,260 1764,260 1765,260 1766,260 1767,260 1768,260 1769,260 1770,260 1771,260 1772,260 1773,260 1774,260 1775,260 1776,260 1777,260 1778,260 1779,260 1780,260 1781,260 1782,260 1783,260 1784,260 1785,260 1786,260 1787,260 1788,260 1789,260 1790,260 1791,260 1792,260 1793,260 1794,260 1795,260 1796,260 1797,260 " />
  </g>
  <clipPath id="clippath10">
    <path d="M-1,-1 H1797 V982H-1 z M1385,-257 H1545 V-65 H1385 z" clip-rule="evenodd" />
  </clipPath>
  <g clip-path="url(#clippath10)">
    <text x="521" y="728" font-family="Source Sans Pro Semibold" font-size="21" fill="#000000"> </text>
    <text x="521" y="754" font-family="Source Sans Pro Semibold" font-size="21" fill="#000000">|</text>
    <text x="521" y="779" font-family="Source Sans Pro Semibold" font-size="21" fill="#000000">+ - - - -   Mean Vehicle Count</text>
  </g>
  <clipPath id="clippath11">
    <path d="M-1,-1 H1797 V982H-1 z M1385,-257 H1545 V-65 H1385 z" clip-rule="evenodd" />
  </clipPath>
  <g clip-path="url(#clippath11)">
    <polygon stroke="#000000" stroke-width="2" stroke-linecap="round" stroke-linejoin="round" fill="#00ff00" fill-rule="evenodd" points="515,732 525,722 535,732 525,742 " />
  </g>
  <clipPath id="clippath12">
    <path d="M-1,-1 H1797 V982H-1 z M1385,-257 H1545 V-65 H1385 z" clip-rule="evenodd" />
  </clipPath>
  <g clip-path="url(#clippath12)">
    <text x="43" y="737" font-family="Source Sans Pro Semibold" font-size="21" fill="#008000">NORMAL</text>
  </g>
  <clipPath id="clippath13">
    <path d="M-1,-1 H1797 V982H-1 z M1385,-257 H1545 V-65 H1385 z" clip-rule="evenodd" />
  </clipPath>
  <g clip-path="url(#clippath13)">
    <text x="75" y="497" font-family="Source Sans Pro Semibold" font-size="21" fill="#993333">HIGH</text>
  </g>
  <clipPath id="clippath14">
    <path d="M-1,-1 H1797 V982H-1 z M1385,-257 H1545 V-65 H1385 z" clip-rule="evenodd" />
  </clipPath>
  <g clip-path="url(#clippath14)">
    <text x="21" y="378" font-family="Source Sans Pro Semibold" font-size="21" fill="#cc3333">HIGH_MAX</text>
  </g>
  <clipPath id="clippath15">
    <path d="M-1,-1 H1797 V982H-1 z M1385,-257 H1545 V-65 H1385 z" clip-rule="evenodd" />
  </clipPath>
  <g clip-path="url(#clippath15)">
    <text x="3" y="260" font-family="Source Sans Pro Semibold" font-size="21" fill="#ff3333">EMERGENCY</text>
  </g>
  <clipPath id="clippath16">
    <path d="M-1,-1 H1797 V982H-1 z M1385,-257 H1545 V-65 H1385 z" clip-rule="evenodd" />
  </clipPath>
  <g clip-path="url(#clippath16)">
    <text x="24" y="22" font-family="Source Sans Pro Semibold" font-size="21" fill="#ff0000">MAXIMUM</text>
  </g>
  <clipPath id="clippath17">
    <path d="M-1,-1 H1797 V982H-1 z M1385,-257 H1545 V-65 H1385 z" clip-rule="evenodd" />
  </clipPath>
  <g clip-path="url(#clippath17)">
    <text x="1462" y="63" font-family="Source Sans Pro Semibold" font-size="21" fill="#993333">+=====================+</text>
    <text x="1463" y="89" font-family="Source Sans Pro Semibold" font-size="21" fill="#993333">||    x axis  :  Vehicle Count    ||</text>
    <text x="1464" y="115" font-family="Source Sans Pro Semibold" font-size="21" fill="#993333">||    y axis  :  Priority Value    ||</text>
    <text x="1462" y="140" font-family="Source Sans Pro Semibold" font-size="21" fill="#993333">+=====================+</text>
  </g>
</svg>
